<svg xmlns="http://www.w3.org/2000/svg" xmlns:xlink="http://www.w3.org/1999/xlink" xmlns:lucid="lucid" width="4962" height="2582"><g transform="translate(-39 221)" lucid:page-tab-id="0_0"><path d="M0-500h5000v3000H0z" fill="#fff"/><a xlink:href="https://chop.alationcloud.com/domain/38/" target="_blank"><path d="M80 46a6 6 0 0 1 6-6h4868a6 6 0 0 1 6 6v94.6a6 6 0 0 1-6 6H86a6 6 0 0 1-6-6z" stroke="#282c33" stroke-width="2" fill="#edf5ff"/><use xlink:href="#a" transform="matrix(1,0,0,1,85,45.000000000000014) translate(2379.777777777778 55.201388888888886)"/><path class="lucid-link lucid-hotspot lucid-overlay-hotspot" d="M80 46a6 6 0 0 1 6-6h4868a6 6 0 0 1 6 6v94.6a6 6 0 0 1-6 6H86a6 6 0 0 1-6-6z" fill="none"/></a><path d="M80 183.88a6 6 0 0 1 6-6h2056.2a6 6 0 0 1 6 6v89.52a6 6 0 0 1-6 6H86a6 6 0 0 1-6-6z" stroke="#282c33" stroke-width="2" fill="#cfe4ff"/><use xlink:href="#b" transform="matrix(1,0,0,1,85,182.88519637462235) translate(875.1111111111111 53.638888888888886)"/><use xlink:href="#c" transform="matrix(1,0,0,1,85,182.88519637462235) translate(994.1975308641975 53.638888888888886)"/><path d="M80 319.23a6 6 0 0 1 6-6h197.14a6 6 0 0 1 6 6v115.1a6 6 0 0 1-6 6H86a6 6 0 0 1-6-6z" stroke="#282c33" stroke-width="2" fill="#6db1ff"/><use xlink:href="#d" transform="matrix(1,0,0,1,84.99999999999999,318.23262839879146) translate(20.62345679012347 47.013888888888886)"/><use xlink:href="#e" transform="matrix(1,0,0,1,84.99999999999999,318.23262839879146) translate(52.59876543209877 84.34722222222221)"/><path d="M312.38 316.7a6 6 0 0 1 6-6h197.14a6 6 0 0 1 6 6v118.27a6 6 0 0 1-6 6H318.38a6 6 0 0 1-6-6z" stroke="#282c33" stroke-width="2" fill="#6db1ff"/><use xlink:href="#f" transform="matrix(1,0,0,1,317.3809523809524,315.69486404833833) translate(25.030864197530875 47.576388888888886)"/><use xlink:href="#g" transform="matrix(1,0,0,1,317.3809523809524,315.69486404833833) translate(36.049382716049394 84.90972222222221)"/><path d="M544.76 316.7a6 6 0 0 1 6-6h359.8a6 6 0 0 1 6 6v120.8a6 6 0 0 1-6 6h-359.8a6 6 0 0 1-6-6z" stroke="#282c33" stroke-width="2" fill="#6db1ff"/><use xlink:href="#h" transform="matrix(1,0,0,1,549.7619047619048,315.6948640483384) translate(49.98765432098767 47.951388888888886)"/><use xlink:href="#i" transform="matrix(1,0,0,1,549.7619047619048,315.6948640483384) translate(289.6296296296296 47.951388888888886)"/><use xlink:href="#j" transform="matrix(1,0,0,1,549.7619047619048,315.6948640483384) translate(89.52469135802471 85.28472222222221)"/><use xlink:href="#k" transform="matrix(1,0,0,1,549.7619047619048,315.6948640483384) translate(203.42592592592592 85.28472222222221)"/><path d="M938.3 319.23a6 6 0 0 1 6-6h221.9a6 6 0 0 1 6 6V437.5a6 6 0 0 1-6 6H944.3a6 6 0 0 1-6-6z" stroke="#282c33" stroke-width="2" fill="#6db1ff"/><use xlink:href="#l" transform="matrix(1,0,0,1,943.3095238095239,318.23262839879146) translate(21.518518518518533 47.576388888888886)"/><use xlink:href="#i" transform="matrix(1,0,0,1,943.3095238095239,318.23262839879146) translate(180.09876543209876 47.576388888888886)"/><use xlink:href="#m" transform="matrix(1,0,0,1,943.3095238095239,318.23262839879146) translate(13.697530864197546 84.90972222222221)"/><use xlink:href="#n" transform="matrix(1,0,0,1,943.3095238095239,318.23262839879146) translate(77.4753086419753 84.90972222222221)"/><path d="M1192.43 321.77a6 6 0 0 1 6-6h362.8a6 6 0 0 1 6 6V437.5a6 6 0 0 1-6 6h-362.8a6 6 0 0 1-6-6z" stroke="#282c33" stroke-width="2" fill="#6db1ff"/><use xlink:href="#o" transform="matrix(1,0,0,1,1197.4285714285713,320.7703927492447) translate(108.26543209876544 65.45138888888889)"/><path d="M1590.48 316.7a6 6 0 0 1 6-6h173.9a6 6 0 0 1 6 6v120.8a6 6 0 0 1-6 6h-173.9a6 6 0 0 1-6-6z" stroke="#282c33" stroke-width="2" fill="#6db1ff"/><use xlink:href="#p" transform="matrix(1,0,0,1,1595.4761904761904,315.6948640483384) translate(29.320987654321 67.17013888888889)"/><path d="M1802.52 316.38a6 6 0 0 1 6-6h333.67a6 6 0 0 1 6 6v120.8a6 6 0 0 1-6 6H1808.5a6 6 0 0 1-6-6z" stroke="#282c33" stroke-width="2" fill="#6db1ff"/><use xlink:href="#q" transform="matrix(1,0,0,1,1807.5238095238096,315.37764350453165) translate(17.93209876543213 47.951388888888886)"/><use xlink:href="#r" transform="matrix(1,0,0,1,1807.5238095238096,315.37764350453165) translate(192.24074074074073 47.951388888888886)"/><use xlink:href="#s" transform="matrix(1,0,0,1,1807.5238095238096,315.37764350453165) translate(223.26543209876542 47.951388888888886)"/><use xlink:href="#t" transform="matrix(1,0,0,1,1807.5238095238096,315.37764350453165) translate(84.3456790123457 85.28472222222221)"/><path d="M531.85 472.77a6 6 0 0 1 6-6H734a6 6 0 0 1 6 6v108.96a6 6 0 0 1-6 6H537.85a6 6 0 0 1-6-6z" stroke="#282c33" stroke-width="2" fill="#1071e5"/><use xlink:href="#u" transform="matrix(1,0,0,1,536.8518518518518,471.7673716012085) translate(5.604938271604951 63.045138888888886)"/><path d="M753.9 472.77a6 6 0 0 1 6-6h150.67a6 6 0 0 1 6 6v113.2a6 6 0 0 1-6 6H759.9a6 6 0 0 1-6-6z" stroke="#282c33" stroke-width="2" fill="#1071e5"/><use xlink:href="#v" transform="matrix(1,0,0,1,758.9047619047619,471.7673716012085) translate(23.87037037037038 46.638888888888886)"/><use xlink:href="#w" transform="matrix(1,0,0,1,758.9047619047619,471.7673716012085) translate(41.97530864197532 83.97222222222221)"/><path d="M1195.43 468.54a6 6 0 0 1 6-6h173.9a6 6 0 0 1 6 6v113.2a6 6 0 0 1-6 6h-173.9a6 6 0 0 1-6-6z" stroke="#282c33" stroke-width="2" fill="#1071e5"/><use xlink:href="#x" transform="matrix(1,0,0,1,1200.4285714285716,467.5377643504532) translate(4.259259259259281 46.638888888888886)"/><use xlink:href="#y" transform="matrix(1,0,0,1,1200.4285714285716,467.5377643504532) translate(1.796296296296319 83.97222222222221)"/><path d="M1404.57 468.54a6 6 0 0 1 6-6h150.67a6 6 0 0 1 6 6v113.2a6 6 0 0 1-6 6h-150.67a6 6 0 0 1-6-6z" stroke="#282c33" stroke-width="2" fill="#1071e5"/><use xlink:href="#z" transform="matrix(1,0,0,1,1409.5714285714282,467.5377643504532) translate(4.944444444444457 64.76388888888889)"/><path d="M1590.48 468.54a6 6 0 0 1 6-6h173.9a6 6 0 0 1 6 6v113.2a6 6 0 0 1-6 6h-173.9a6 6 0 0 1-6-6z" stroke="#282c33" stroke-width="2" fill="#1071e5"/><use xlink:href="#A" transform="matrix(1,0,0,1,1595.4761904761904,467.5377643504532) translate(6.981481481481495 64.76388888888889)"/><path d="M2171.43 183.88a6 6 0 0 1 6-6h1637.9a6 6 0 0 1 6 6v89.52a6 6 0 0 1-6 6h-1637.9a6 6 0 0 1-6-6z" stroke="#282c33" stroke-width="2" fill="#cfe4ff"/><use xlink:href="#b" transform="matrix(1,0,0,1,2176.4285714285716,182.88519637462238) translate(678.530864197531 53.638888888888886)"/><use xlink:href="#B" transform="matrix(1,0,0,1,2176.4285714285716,182.88519637462238) translate(797.6172839506173 53.638888888888886)"/><path d="M2171.43 321.77a6 6 0 0 1 6-6h200.05a6 6 0 0 1 6 6v112.56a6 6 0 0 1-6 6h-200.05a6 6 0 0 1-6-6z" stroke="#282c33" stroke-width="2" fill="#6db1ff"/><use xlink:href="#C" transform="matrix(1,0,0,1,2176.4285714285716,320.7703927492447) translate(23.03086419753089 46.451388888888886)"/><use xlink:href="#D" transform="matrix(1,0,0,1,2176.4285714285716,320.7703927492447) translate(124.83333333333334 46.451388888888886)"/><use xlink:href="#E" transform="matrix(1,0,0,1,2176.4285714285716,320.7703927492447) translate(48.87037037037038 83.78472222222221)"/><path d="M2406.7 316.7a6 6 0 0 1 6-6h171a6 6 0 0 1 6 6v120.8a6 6 0 0 1-6 6h-171a6 6 0 0 1-6-6z" stroke="#282c33" stroke-width="2" fill="#6db1ff"/><use xlink:href="#F" transform="matrix(1,0,0,1,2411.714285714286,315.6948640483384) translate(27.90740740740742 67.17013888888889)"/><path d="M2612.95 321.77a6 6 0 0 1 6-6h197.14a6 6 0 0 1 6 6v112.56a6 6 0 0 1-6 6h-197.15a6 6 0 0 1-6-6z" stroke="#282c33" stroke-width="2" fill="#6db1ff"/><use xlink:href="#G" transform="matrix(1,0,0,1,2617.9523809523807,320.7703927492447) translate(35.314814814814824 46.451388888888886)"/><use xlink:href="#H" transform="matrix(1,0,0,1,2617.9523809523807,320.7703927492447) translate(5.15432098765433 83.78472222222221)"/><path d="M2845.33 316.7a6 6 0 0 1 6-6H3002a6 6 0 0 1 6 6v117.63a6 6 0 0 1-6 6h-150.67a6 6 0 0 1-6-6z" stroke="#282c33" stroke-width="2" fill="#6db1ff"/><use xlink:href="#I" transform="matrix(1,0,0,1,2850.3333333333335,315.6948640483384) translate(11.901234567901241 66.13888888888889)"/><path d="M3031.24 316.7a6 6 0 0 1 6-6h778.1a6 6 0 0 1 6 6v113.2a6 6 0 0 1-6 6h-778.1a6 6 0 0 1-6-6z" stroke="#282c33" stroke-width="2" fill="#6db1ff"/><use xlink:href="#J" transform="matrix(1,0,0,1,3036.2380952380954,315.6948640483384) translate(290.425925925926 64.76388888888889)"/><use xlink:href="#K" transform="matrix(1,0,0,1,3036.2380952380954,315.6948640483384) translate(368.1172839506173 64.76388888888889)"/><path d="M3031.24 471.5a6 6 0 0 1 6-6h173.9a6 6 0 0 1 6 6v110.23a6 6 0 0 1-6 6h-173.9a6 6 0 0 1-6-6z" stroke="#282c33" stroke-width="2" fill="#1071e5"/><use xlink:href="#L" transform="matrix(1,0,0,1,3036.2380952380954,470.49848942598186) translate(19.814814814814824 42.545138888888886)"/><use xlink:href="#w" transform="matrix(1,0,0,1,3036.2380952380954,470.49848942598186) translate(53.47530864197532 79.87847222222221)"/><path d="M3240.38 468.54a6 6 0 0 1 6-6h160.54a6 6 0 0 1 6 6v113.2a6 6 0 0 1-6 6h-160.54a6 6 0 0 1-6-6z" stroke="#282c33" stroke-width="2" fill="#1071e5"/><use xlink:href="#M" transform="matrix(1,0,0,1,3245.3809523809523,467.5377643504532) translate(31.549382716049394 46.638888888888886)"/><use xlink:href="#w" transform="matrix(1,0,0,1,3245.3809523809523,467.5377643504532) translate(46.97530864197532 83.97222222222221)"/><path d="M3426.3 468.54a6 6 0 0 1 6-6h173.9a6 6 0 0 1 6 6v113.2a6 6 0 0 1-6 6h-173.9a6 6 0 0 1-6-6z" stroke="#282c33" stroke-width="2" fill="#1071e5"/><use xlink:href="#N" transform="matrix(1,0,0,1,3431.2857142857147,467.5377643504532) translate(44.87654320987655 46.638888888888886)"/><use xlink:href="#e" transform="matrix(1,0,0,1,3431.2857142857147,467.5377643504532) translate(40.59876543209877 83.97222222222221)"/><path d="M3635.43 468.54a6 6 0 0 1 6-6h173.9a6 6 0 0 1 6 6v113.2a6 6 0 0 1-6 6h-173.9a6 6 0 0 1-6-6z" stroke="#282c33" stroke-width="2" fill="#1071e5"/><use xlink:href="#O" transform="matrix(1,0,0,1,3640.4285714285716,467.5377643504532) translate(30.098765432098773 46.638888888888886)"/><use xlink:href="#w" transform="matrix(1,0,0,1,3640.4285714285716,467.5377643504532) translate(53.47530864197532 83.97222222222221)"/><path d="M3844.57 179.76a6 6 0 0 1 6-6h383.05a6 6 0 0 1 6 6v97.76a6 6 0 0 1-6 6h-383.05a6 6 0 0 1-6-6z" stroke="#282c33" stroke-width="2" fill="#cfe4ff"/><use xlink:href="#b" transform="matrix(1,0,0,1,3849.5714285714284,178.76132930513597) translate(60.950617283950635 56.138888888888886)"/><use xlink:href="#P" transform="matrix(1,0,0,1,3849.5714285714284,178.76132930513597) translate(180.03703703703704 56.138888888888886)"/><path d="M3844.57 316.7a6 6 0 0 1 6-6h197.14a6 6 0 0 1 6 6v113.2a6 6 0 0 1-6 6h-197.13a6 6 0 0 1-6-6z" stroke="#282c33" stroke-width="2" fill="#6db1ff"/><use xlink:href="#Q" transform="matrix(1,0,0,1,3849.5714285714284,315.6948640483384) translate(28.35802469135804 64.76388888888889)"/><path d="M4076.95 316.7a6 6 0 0 1 6-6h150.67a6 6 0 0 1 6 6v113.2a6 6 0 0 1-6 6h-150.67a6 6 0 0 1-6-6z" stroke="#282c33" stroke-width="2" fill="#6db1ff"/><use xlink:href="#R" transform="matrix(1,0,0,1,4081.9523809523803,315.6948640483384) translate(35.92592592592594 64.76388888888889)"/><path d="M4262.86 183.88a6 6 0 0 1 6-6H4954a6 6 0 0 1 6 6v89.52a6 6 0 0 1-6 6h-685.14a6 6 0 0 1-6-6z" stroke="#282c33" stroke-width="2" fill="#cfe4ff"/><use xlink:href="#b" transform="matrix(1,0,0,1,4267.857142857143,182.88519637462238) translate(220.50617283950618 53.638888888888886)"/><use xlink:href="#g" transform="matrix(1,0,0,1,4267.857142857143,182.88519637462238) translate(339.5925925925926 53.638888888888886)"/><path d="M4262.86 316.7a6 6 0 0 1 6-6H4454a6 6 0 0 1 6 6V426.7a6 6 0 0 1-6 6h-185.14a6 6 0 0 1-6-6z" stroke="#282c33" stroke-width="2" fill="#6db1ff"/><use xlink:href="#S" transform="matrix(1,0,0,1,4267.857142857143,315.6948640483384) translate(13.8888888888889 42.545138888888886)"/><use xlink:href="#e" transform="matrix(1,0,0,1,4267.857142857143,315.6948640483384) translate(46.59876543209877 79.87847222222221)"/><path d="M4481.43 316.7a6 6 0 0 1 6-6H4674a6 6 0 0 1 6 6v113.2a6 6 0 0 1-6 6h-186.57a6 6 0 0 1-6-6z" stroke="#282c33" stroke-width="2" fill="#6db1ff"/><use xlink:href="#T" transform="matrix(1,0,0,1,4486.428571428571,315.6948640483384) translate(35.90740740740742 46.638888888888886)"/><use xlink:href="#P" transform="matrix(1,0,0,1,4486.428571428571,315.6948640483384) translate(21.99382716049385 83.97222222222221)"/><path d="M4700 313.52a6 6 0 0 1 6-6h246.86a6 6 0 0 1 6 6v113.2a6 6 0 0 1-6 6H4706a6 6 0 0 1-6-6z" stroke="#282c33" stroke-width="2" fill="#6db1ff"/><use xlink:href="#U" transform="matrix(1,0,0,1,4705,312.5226586102719) translate(32.981481481481495 46.638888888888886)"/><use xlink:href="#V" transform="matrix(1,0,0,1,4705,312.5226586102719) translate(152.24074074074073 46.638888888888886)"/><use xlink:href="#W" transform="matrix(1,0,0,1,4705,312.5226586102719) translate(70.18518518518519 83.97222222222221)"/><path d="M80 806a6 6 0 0 1 6-6h2268a6 6 0 0 1 6 6v93a6 6 0 0 1-6 6H86a6 6 0 0 1-6-6z" stroke="#282c33" stroke-width="2" fill="#d7faf5"/><use xlink:href="#X" transform="matrix(1,0,0,1,85,805) translate(1017.962962962963 56.33680555555554)"/><path d="M80 946a6 6 0 0 1 6-6h700.5a6 6 0 0 1 6 6v93a6 6 0 0 1-6 6H86a6 6 0 0 1-6-6z" stroke="#282c33" stroke-width="2" fill="#b8f5ed"/><use xlink:href="#Y" transform="matrix(1,0,0,1,85,945) translate(156.80864197530872 56.33680555555554)"/><use xlink:href="#Z" transform="matrix(1,0,0,1,85,945) translate(319.40123456790127 56.33680555555554)"/><path d="M80 1086a6 6 0 0 1 6-6h305.95a6 6 0 0 1 6 6v128a6 6 0 0 1-6 6H86a6 6 0 0 1-6-6z" stroke="#282c33" stroke-width="2" fill="#00c2a8"/><g><use xlink:href="#aa" transform="matrix(1,0,0,1,85,1085) translate(90.41975308641977 47.74305555555554)"/><use xlink:href="#ab" transform="matrix(1,0,0,1,85,1085) translate(33.382716049382765 101.07638888888886)"/></g><path d="M436.25 1086a6 6 0 0 1 6-6H786.5a6 6 0 0 1 6 6v128a6 6 0 0 1-6 6H442.25a6 6 0 0 1-6-6z" stroke="#282c33" stroke-width="2" fill="#00c2a8"/><g><use xlink:href="#ac" transform="matrix(1,0,0,1,441.25,1085) translate(63.93209876543216 47.74305555555554)"/><use xlink:href="#ad" transform="matrix(1,0,0,1,441.25,1085) translate(251.09259259259255 47.74305555555554)"/><use xlink:href="#ae" transform="matrix(1,0,0,1,441.25,1085) translate(19.6111111111112 101.07638888888886)"/></g><path d="M828.13 946a6 6 0 0 1 6-6H2354a6 6 0 0 1 6 6v93a6 6 0 0 1-6 6H834.12a6 6 0 0 1-6-6z" stroke="#282c33" stroke-width="2" fill="#b8f5ed"/><g><use xlink:href="#af" transform="matrix(1,0,0,1,833.125,945) translate(677.2345679012346 56.33680555555554)"/></g><path d="M828.13 1086a6 6 0 0 1 6-6h576.75a6 6 0 0 1 6 6v128a6 6 0 0 1-6 6H834.1a6 6 0 0 1-6-6z" stroke="#282c33" stroke-width="2" fill="#00c2a8"/><g><use xlink:href="#ag" transform="matrix(1,0,0,1,833.125,1085) translate(131.72222222222229 72.11805555555554)"/><use xlink:href="#ah" transform="matrix(1,0,0,1,833.125,1085) translate(328.8827160493827 72.11805555555554)"/></g><path d="M1433.75 1086a6 6 0 0 1 6-6h237.38a6 6 0 0 1 6 6v128a6 6 0 0 1-6 6h-237.38a6 6 0 0 1-6-6z" stroke="#282c33" stroke-width="2" fill="#00c2a8"/><g><use xlink:href="#ai" transform="matrix(1,0,0,1,1438.75,1085) translate(45.98765432098769 72.11805555555554)"/></g><path d="M1700 1086a6 6 0 0 1 6-6h348a6 6 0 0 1 6 6v128a6 6 0 0 1-6 6h-348a6 6 0 0 1-6-6z" stroke="#282c33" stroke-width="2" fill="#00c2a8"/><g><use xlink:href="#aj" transform="matrix(1,0,0,1,1705,1085) translate(7.407407407407476 72.11805555555554)"/></g><path d="M2075 1086a6 6 0 0 1 6-6h273a6 6 0 0 1 6 6v128a6 6 0 0 1-6 6h-273a6 6 0 0 1-6-6z" stroke="#282c33" stroke-width="2" fill="#00c2a8"/><g><use xlink:href="#ak" transform="matrix(1,0,0,1,2080,1085) translate(63.61111111111114 47.74305555555554)"/><use xlink:href="#al" transform="matrix(1,0,0,1,2080,1085) translate(75.95679012345681 101.07638888888886)"/></g><path d="M828.13 1246a6 6 0 0 1 6-6H1134a6 6 0 0 1 6 6v104.67a6 6 0 0 1-6 6H834.12a6 6 0 0 1-6-6z" stroke="#282c33" stroke-width="2" fill="#008573"/><g><use xlink:href="#am" transform="matrix(1,0,0,1,833.125,1245) translate(47.4197530864198 38.89930555555554)"/><use xlink:href="#an" transform="matrix(1,0,0,1,833.125,1245) translate(83.28395061728398 92.23263888888886)"/></g><path d="M1167.5 1246a6 6 0 0 1 6-6h237.38a6 6 0 0 1 6 6v104.67a6 6 0 0 1-6 6H1173.5a6 6 0 0 1-6-6z" stroke="#282c33" stroke-width="2" fill="#008573"/><g><use xlink:href="#ao" transform="matrix(1,0,0,1,1172.5,1245) translate(32.59259259259264 38.89930555555554)"/><use xlink:href="#an" transform="matrix(1,0,0,1,1172.5,1245) translate(52.28395061728398 92.23263888888886)"/></g><path d="M80 1606a6 6 0 0 1 6-6h1160.5a6 6 0 0 1 6 6v133.7a6 6 0 0 1-6 6H86a6 6 0 0 1-6-6z" stroke="#282c33" stroke-width="2" fill="#fff0fb"/><g><use xlink:href="#ap" transform="matrix(1,0,0,1,85,1605) translate(481.6234567901235 78.05555555555554)"/></g><path d="M80 1786a6 6 0 0 1 6-6h660.23a6 6 0 0 1 6 6v133.7a6 6 0 0 1-6 6H86a6 6 0 0 1-6-6z" stroke="#282c33" stroke-width="2" fill="#ffd6f5"/><g><use xlink:href="#aq" transform="matrix(1,0,0,1,85,1785) translate(85.32716049382725 78.05555555555554)"/><use xlink:href="#ar" transform="matrix(1,0,0,1,85,1785) translate(287.4259259259259 78.05555555555554)"/></g><path d="M819.03 1786a6 6 0 0 1 6-6h421.47a6 6 0 0 1 6 6v133.7a6 6 0 0 1-6 6H825.03a6 6 0 0 1-6-6z" stroke="#282c33" stroke-width="2" fill="#ffd6f5"/><g><use xlink:href="#as" transform="matrix(1,0,0,1,824.030303030303,1785) translate(66.44444444444451 78.05555555555554)"/><use xlink:href="#at" transform="matrix(1,0,0,1,824.030303030303,1785) translate(174.83950617283952 78.05555555555554)"/></g><path d="M1770-194a6 6 0 0 1 6-6h1488a6 6 0 0 1 6 6v151.4a6 6 0 0 1-6 6H1776a6 6 0 0 1-6-6z" stroke="#000" stroke-opacity="0" stroke-width="2" fill="#fff" fill-opacity="0"/><g><use xlink:href="#au" transform="matrix(1,0,0,1,1775,-195) translate(166.23914930555634 95.85134548611103)"/><use xlink:href="#av" transform="matrix(1,0,0,1,1775,-195) translate(455.61957465277817 95.85134548611103)"/><use xlink:href="#aw" transform="matrix(1,0,0,1,1775,-195) translate(869.0201822916664 95.85134548611103)"/><use xlink:href="#ax" transform="matrix(1,0,0,1,1775,-195) translate(1199.7406684027771 95.85134548611103)"/></g><path d="M80 2251a6 6 0 0 1 6-6h288a6 6 0 0 1 6 6v83a6 6 0 0 1-6 6H86a6 6 0 0 1-6-6z" stroke="#000" stroke-opacity="0" stroke-width="2" fill="#fff" fill-opacity="0"/><g><use xlink:href="#ay" transform="matrix(1,0,0,1,85,2250) translate(0 37.08333333333333)"/><use xlink:href="#az" transform="matrix(1,0,0,1,85,2250) translate(106.6840277777778 37.08333333333333)"/><use xlink:href="#aA" transform="matrix(1,0,0,1,85,2250) translate(0 60.509982638888886)"/><use xlink:href="#aB" transform="matrix(1,0,0,1,85,2250) translate(66.67751736111111 60.509982638888886)"/><use xlink:href="#aC" transform="matrix(1,0,0,1,85,2250) translate(173.3615451388889 60.509982638888886)"/></g><defs><path fill="#3a414a" d="M67-125c0 53 21 87 73 88 37 1 54-22 65-47l45 17C233-25 199 4 140 4 58 4 20-42 15-125 8-235 124-281 211-232c18 10 29 29 36 50l-46 12c-8-25-30-41-62-41-52 0-71 34-72 86" id="aD"/><path fill="#3a414a" d="M25 0v-261h50V0H25" id="aE"/><path fill="#3a414a" d="M25-224v-37h50v37H25zM25 0v-190h50V0H25" id="aF"/><path fill="#3a414a" d="M135-194c87-1 58 113 63 194h-50c-7-57 23-157-34-157-59 0-34 97-39 157H25l-1-190h47c2 12-1 28 3 38 12-26 28-41 61-42" id="aG"/><path fill="#3a414a" d="M190-63c-7 42-38 67-86 67-59 0-84-38-90-98-12-110 154-137 174-36l-49 2c-2-19-15-32-35-32-30 0-35 28-38 64-6 74 65 87 74 30" id="aH"/><path fill="#3a414a" d="M133-34C117-15 103 5 69 4 32 3 11-16 11-54c-1-60 55-63 116-61 1-26-3-47-28-47-18 1-26 9-28 27l-52-2c7-38 36-58 82-57s74 22 75 68l1 82c-1 14 12 18 25 15v27c-30 8-71 5-69-32zm-48 3c29 0 43-24 42-57-32 0-66-3-65 30 0 17 8 27 23 27" id="aI"/><g id="a"><use transform="matrix(0.08641975308641973,0,0,0.08641975308641973,0,0)" xlink:href="#aD"/><use transform="matrix(0.08641975308641973,0,0,0.08641975308641973,22.38271604938271,0)" xlink:href="#aE"/><use transform="matrix(0.08641975308641973,0,0,0.08641975308641973,31.024691358024686,0)" xlink:href="#aF"/><use transform="matrix(0.08641975308641973,0,0,0.08641975308641973,39.66666666666666,0)" xlink:href="#aG"/><use transform="matrix(0.08641975308641973,0,0,0.08641975308641973,58.59259259259258,0)" xlink:href="#aF"/><use transform="matrix(0.08641975308641973,0,0,0.08641975308641973,67.23456790123456,0)" xlink:href="#aH"/><use transform="matrix(0.08641975308641973,0,0,0.08641975308641973,84.5185185185185,0)" xlink:href="#aI"/><use transform="matrix(0.08641975308641973,0,0,0.08641975308641973,101.80246913580245,0)" xlink:href="#aE"/></g><g id="b"><use transform="matrix(0.08641975308641973,0,0,0.08641975308641973,0,0)" xlink:href="#aD"/><use transform="matrix(0.08641975308641973,0,0,0.08641975308641973,22.38271604938271,0)" xlink:href="#aE"/><use transform="matrix(0.08641975308641973,0,0,0.08641975308641973,31.024691358024686,0)" xlink:href="#aF"/><use transform="matrix(0.08641975308641973,0,0,0.08641975308641973,39.66666666666666,0)" xlink:href="#aG"/><use transform="matrix(0.08641975308641973,0,0,0.08641975308641973,58.59259259259258,0)" xlink:href="#aF"/><use transform="matrix(0.08641975308641973,0,0,0.08641975308641973,67.23456790123456,0)" xlink:href="#aH"/><use transform="matrix(0.08641975308641973,0,0,0.08641975308641973,84.5185185185185,0)" xlink:href="#aI"/><use transform="matrix(0.08641975308641973,0,0,0.08641975308641973,101.80246913580245,0)" xlink:href="#aE"/></g><path fill="#3a414a" d="M24-248c120-7 223 5 221 122C244-46 201 0 124 0H24v-248zM76-40c74 7 117-18 117-86 0-67-45-88-117-82v168" id="aJ"/><path fill="#3a414a" d="M185-48c-13 30-37 53-82 52C43 2 14-33 14-96s30-98 90-98c62 0 83 45 84 108H66c0 31 8 55 39 56 18 0 30-7 34-22zm-45-69c5-46-57-63-70-21-2 6-4 13-4 21h74" id="aK"/><path fill="#3a414a" d="M135-194c53 0 70 44 70 98 0 56-19 98-73 100-31 1-45-17-59-34 3 33 2 69 2 105H25l-1-265h48c2 10 0 23 3 31 11-24 29-35 60-35zM114-30c33 0 39-31 40-66 0-38-9-64-40-64-56 0-55 130 0 130" id="aL"/><path fill="#3a414a" d="M135-150c-39-12-60 13-60 57V0H25l-1-190h47c2 13-1 29 3 40 6-28 27-53 61-41v41" id="aM"/><path fill="#3a414a" d="M115-3C79 11 28 4 28-45v-112H4v-33h27l15-45h31v45h36v33H77v99c-1 23 16 31 38 25v30" id="aN"/><path fill="#3a414a" d="M220-157c-53 9-28 100-34 157h-49v-107c1-27-5-49-29-50C55-147 81-57 75 0H25l-1-190h47c2 12-1 28 3 38 10-53 101-56 108 0 13-22 24-43 59-42 82 1 51 116 57 194h-49v-107c-1-25-5-48-29-50" id="aO"/><path fill="#3a414a" d="M137-138c1-29-70-34-71-4 15 46 118 7 119 86 1 83-164 76-172 9l43-7c4 19 20 25 44 25 33 8 57-30 24-41C81-84 22-81 20-136c-2-80 154-74 161-7" id="aP"/><g id="c"><use transform="matrix(0.08641975308641973,0,0,0.08641975308641973,0,0)" xlink:href="#aJ"/><use transform="matrix(0.08641975308641973,0,0,0.08641975308641973,22.38271604938271,0)" xlink:href="#aK"/><use transform="matrix(0.08641975308641973,0,0,0.08641975308641973,39.66666666666666,0)" xlink:href="#aL"/><use transform="matrix(0.08641975308641973,0,0,0.08641975308641973,58.59259259259258,0)" xlink:href="#aI"/><use transform="matrix(0.08641975308641973,0,0,0.08641975308641973,75.87654320987653,0)" xlink:href="#aM"/><use transform="matrix(0.08641975308641973,0,0,0.08641975308641973,87.97530864197529,0)" xlink:href="#aN"/><use transform="matrix(0.08641975308641973,0,0,0.08641975308641973,98.25925925925924,0)" xlink:href="#aO"/><use transform="matrix(0.08641975308641973,0,0,0.08641975308641973,125.91358024691355,0)" xlink:href="#aK"/><use transform="matrix(0.08641975308641973,0,0,0.08641975308641973,143.1975308641975,0)" xlink:href="#aG"/><use transform="matrix(0.08641975308641973,0,0,0.08641975308641973,162.1234567901234,0)" xlink:href="#aN"/><use transform="matrix(0.08641975308641973,0,0,0.08641975308641973,172.40740740740736,0)" xlink:href="#aP"/></g><path fill="#3a414a" d="M182-130c37 4 62 22 62 59C244 23 116-4 24 0v-248c84 5 203-23 205 63 0 31-19 50-47 55zM76-148c40-3 101 13 101-30 0-44-60-28-101-31v61zm0 110c48-3 116 14 116-37 0-48-69-32-116-35v72" id="aQ"/><path fill="#3a414a" d="M114-157C55-157 80-60 75 0H25v-261h50l-1 109c12-26 28-41 61-42 86-1 58 113 63 194h-50c-7-57 23-157-34-157" id="aR"/><path fill="#3a414a" d="M128 0H69L1-190h53L99-40l48-150h52" id="aS"/><path fill="#3a414a" d="M110-194c64 0 96 36 96 99 0 64-35 99-97 99-61 0-95-36-95-99 0-62 34-99 96-99zm-1 164c35 0 45-28 45-65 0-40-10-65-43-65-34 0-45 26-45 65 0 36 10 65 43 65" id="aT"/><g id="d"><use transform="matrix(0.08641975308641973,0,0,0.08641975308641973,0,0)" xlink:href="#aQ"/><use transform="matrix(0.08641975308641973,0,0,0.08641975308641973,22.38271604938271,0)" xlink:href="#aK"/><use transform="matrix(0.08641975308641973,0,0,0.08641975308641973,39.66666666666666,0)" xlink:href="#aR"/><use transform="matrix(0.08641975308641973,0,0,0.08641975308641973,58.59259259259258,0)" xlink:href="#aI"/><use transform="matrix(0.08641975308641973,0,0,0.08641975308641973,75.87654320987653,0)" xlink:href="#aS"/><use transform="matrix(0.08641975308641973,0,0,0.08641975308641973,93.16049382716048,0)" xlink:href="#aF"/><use transform="matrix(0.08641975308641973,0,0,0.08641975308641973,101.80246913580245,0)" xlink:href="#aT"/><use transform="matrix(0.08641975308641973,0,0,0.08641975308641973,120.72839506172836,0)" xlink:href="#aM"/><use transform="matrix(0.08641975308641973,0,0,0.08641975308641973,132.82716049382714,0)" xlink:href="#aI"/><use transform="matrix(0.08641975308641973,0,0,0.08641975308641973,150.1111111111111,0)" xlink:href="#aE"/></g><path fill="#3a414a" d="M186 0v-106H76V0H24v-248h52v99h110v-99h50V0h-50" id="aU"/><g id="e"><use transform="matrix(0.08641975308641973,0,0,0.08641975308641973,0,0)" xlink:href="#aU"/><use transform="matrix(0.08641975308641973,0,0,0.08641975308641973,22.38271604938271,0)" xlink:href="#aK"/><use transform="matrix(0.08641975308641973,0,0,0.08641975308641973,39.66666666666666,0)" xlink:href="#aI"/><use transform="matrix(0.08641975308641973,0,0,0.08641975308641973,56.950617283950606,0)" xlink:href="#aE"/><use transform="matrix(0.08641975308641973,0,0,0.08641975308641973,65.59259259259258,0)" xlink:href="#aN"/><use transform="matrix(0.08641975308641973,0,0,0.08641975308641973,75.87654320987653,0)" xlink:href="#aR"/></g><path fill="#3a414a" d="M240-174c0 40-23 61-54 70L253 0h-59l-57-94H76V0H24v-248c93 4 217-23 216 74zM76-134c48-2 112 12 112-38 0-48-66-32-112-35v73" id="aV"/><path fill="#3a414a" d="M88-194c31-1 46 15 58 34l-1-101h50l1 261h-48c-2-10 0-23-3-31C134-8 116 4 84 4 32 4 16-41 15-95c0-56 19-97 73-99zm17 164c33 0 40-30 41-66 1-37-9-64-41-64s-38 30-39 65c0 43 13 65 39 65" id="aW"/><path fill="#3a414a" d="M195-6C206 82 75 100 31 46c-4-6-6-13-8-21l49-6c3 16 16 24 34 25 40 0 42-37 40-79-11 22-30 35-61 35-53 0-70-43-70-97 0-56 18-96 73-97 30 0 46 14 59 34l2-30h47zm-90-29c32 0 41-27 41-63 0-35-9-62-40-62-32 0-39 29-40 63 0 36 9 62 39 62" id="aX"/><path fill="#3a414a" d="M123 10C108 53 80 86 19 72V37c35 8 53-11 59-39L3-190h52l48 148c12-52 28-100 44-148h51" id="aY"/><g id="f"><use transform="matrix(0.08641975308641973,0,0,0.08641975308641973,0,0)" xlink:href="#aV"/><use transform="matrix(0.08641975308641973,0,0,0.08641975308641973,22.38271604938271,0)" xlink:href="#aI"/><use transform="matrix(0.08641975308641973,0,0,0.08641975308641973,39.66666666666666,0)" xlink:href="#aW"/><use transform="matrix(0.08641975308641973,0,0,0.08641975308641973,58.59259259259258,0)" xlink:href="#aF"/><use transform="matrix(0.08641975308641973,0,0,0.08641975308641973,67.23456790123456,0)" xlink:href="#aT"/><use transform="matrix(0.08641975308641973,0,0,0.08641975308641973,86.16049382716048,0)" xlink:href="#aE"/><use transform="matrix(0.08641975308641973,0,0,0.08641975308641973,94.80246913580245,0)" xlink:href="#aT"/><use transform="matrix(0.08641975308641973,0,0,0.08641975308641973,113.72839506172836,0)" xlink:href="#aX"/><use transform="matrix(0.08641975308641973,0,0,0.08641975308641973,132.6543209876543,0)" xlink:href="#aY"/></g><path fill="#3a414a" d="M169-182c-1-43-94-46-97-3 18 66 151 10 154 114 3 95-165 93-204 36-6-8-10-19-12-30l50-8c3 46 112 56 116 5-17-69-150-10-154-114-4-87 153-88 188-35 5 8 8 18 10 28" id="aZ"/><g id="g"><use transform="matrix(0.08641975308641973,0,0,0.08641975308641973,0,0)" xlink:href="#aZ"/><use transform="matrix(0.08641975308641973,0,0,0.08641975308641973,20.740740740740737,0)" xlink:href="#aK"/><use transform="matrix(0.08641975308641973,0,0,0.08641975308641973,38.02469135802468,0)" xlink:href="#aM"/><use transform="matrix(0.08641975308641973,0,0,0.08641975308641973,50.12345679012345,0)" xlink:href="#aS"/><use transform="matrix(0.08641975308641973,0,0,0.08641975308641973,67.40740740740739,0)" xlink:href="#aF"/><use transform="matrix(0.08641975308641973,0,0,0.08641975308641973,76.04938271604937,0)" xlink:href="#aH"/><use transform="matrix(0.08641975308641973,0,0,0.08641975308641973,93.33333333333331,0)" xlink:href="#aK"/><use transform="matrix(0.08641975308641973,0,0,0.08641975308641973,110.61728395061726,0)" xlink:href="#aP"/></g><path fill="#3a414a" d="M199 0l-22-63H83L61 0H9l90-248h61L250 0h-51zm-33-102l-36-108c-10 38-24 72-36 108h72" id="ba"/><g id="h"><use transform="matrix(0.08641975308641973,0,0,0.08641975308641973,0,0)" xlink:href="#ba"/><use transform="matrix(0.08641975308641973,0,0,0.08641975308641973,22.38271604938271,0)" xlink:href="#aG"/><use transform="matrix(0.08641975308641973,0,0,0.08641975308641973,41.30864197530863,0)" xlink:href="#aK"/><use transform="matrix(0.08641975308641973,0,0,0.08641975308641973,58.59259259259258,0)" xlink:href="#aP"/><use transform="matrix(0.08641975308641973,0,0,0.08641975308641973,75.87654320987653,0)" xlink:href="#aN"/><use transform="matrix(0.08641975308641973,0,0,0.08641975308641973,86.16049382716048,0)" xlink:href="#aR"/><use transform="matrix(0.08641975308641973,0,0,0.08641975308641973,105.0864197530864,0)" xlink:href="#aK"/><use transform="matrix(0.08641975308641973,0,0,0.08641975308641973,122.37037037037034,0)" xlink:href="#aP"/><use transform="matrix(0.08641975308641973,0,0,0.08641975308641973,139.6543209876543,0)" xlink:href="#aF"/><use transform="matrix(0.08641975308641973,0,0,0.08641975308641973,148.29629629629628,0)" xlink:href="#aT"/><use transform="matrix(0.08641975308641973,0,0,0.08641975308641973,167.2222222222222,0)" xlink:href="#aE"/><use transform="matrix(0.08641975308641973,0,0,0.08641975308641973,175.86419753086417,0)" xlink:href="#aT"/><use transform="matrix(0.08641975308641973,0,0,0.08641975308641973,194.79012345679007,0)" xlink:href="#aX"/><use transform="matrix(0.08641975308641973,0,0,0.08641975308641973,213.716049382716,0)" xlink:href="#aY"/></g><path fill="#3a414a" d="M168-19C124 19 11 11 16-68c3-43 29-60 59-75-25-44-12-111 53-106 37 3 64 15 64 52 0 43-40 52-69 68 12 22 27 41 43 59 14-19 21-38 28-64l37 13c-8 29-19 52-34 74 12 10 32 16 52 10v35c-28 11-65-2-81-17zm-58-139c19-9 43-14 43-39 0-14-10-22-25-22-34 0-33 41-18 61zM60-68c-3 40 55 47 79 25-18-20-34-42-48-67-18 8-30 20-31 42" id="bb"/><use transform="matrix(0.08641975308641973,0,0,0.08641975308641973,0,0)" xlink:href="#bb" id="i"/><g id="j"><use transform="matrix(0.08641975308641973,0,0,0.08641975308641973,0,0)" xlink:href="#aD"/><use transform="matrix(0.08641975308641973,0,0,0.08641975308641973,22.38271604938271,0)" xlink:href="#aM"/><use transform="matrix(0.08641975308641973,0,0,0.08641975308641973,34.481481481481474,0)" xlink:href="#aF"/><use transform="matrix(0.08641975308641973,0,0,0.08641975308641973,43.12345679012345,0)" xlink:href="#aN"/><use transform="matrix(0.08641975308641973,0,0,0.08641975308641973,53.4074074074074,0)" xlink:href="#aF"/><use transform="matrix(0.08641975308641973,0,0,0.08641975308641973,62.04938271604937,0)" xlink:href="#aH"/><use transform="matrix(0.08641975308641973,0,0,0.08641975308641973,79.33333333333331,0)" xlink:href="#aI"/><use transform="matrix(0.08641975308641973,0,0,0.08641975308641973,96.61728395061726,0)" xlink:href="#aE"/></g><g id="k"><use transform="matrix(0.08641975308641973,0,0,0.08641975308641973,0,0)" xlink:href="#aD"/><use transform="matrix(0.08641975308641973,0,0,0.08641975308641973,22.38271604938271,0)" xlink:href="#aI"/><use transform="matrix(0.08641975308641973,0,0,0.08641975308641973,39.66666666666666,0)" xlink:href="#aM"/><use transform="matrix(0.08641975308641973,0,0,0.08641975308641973,51.76543209876541,0)" xlink:href="#aK"/></g><path fill="#3a414a" d="M24-248c93 1 206-16 204 79-1 75-69 88-152 82V0H24v-248zm52 121c47 0 100 7 100-41 0-47-54-39-100-39v80" id="bc"/><g id="l"><use transform="matrix(0.08641975308641973,0,0,0.08641975308641973,0,0)" xlink:href="#bc"/><use transform="matrix(0.08641975308641973,0,0,0.08641975308641973,20.740740740740737,0)" xlink:href="#aI"/><use transform="matrix(0.08641975308641973,0,0,0.08641975308641973,38.02469135802468,0)" xlink:href="#aN"/><use transform="matrix(0.08641975308641973,0,0,0.08641975308641973,48.30864197530863,0)" xlink:href="#aR"/><use transform="matrix(0.08641975308641973,0,0,0.08641975308641973,67.23456790123456,0)" xlink:href="#aT"/><use transform="matrix(0.08641975308641973,0,0,0.08641975308641973,86.16049382716048,0)" xlink:href="#aE"/><use transform="matrix(0.08641975308641973,0,0,0.08641975308641973,94.80246913580245,0)" xlink:href="#aT"/><use transform="matrix(0.08641975308641973,0,0,0.08641975308641973,113.72839506172836,0)" xlink:href="#aX"/><use transform="matrix(0.08641975308641973,0,0,0.08641975308641973,132.6543209876543,0)" xlink:href="#aY"/></g><path fill="#3a414a" d="M24 0v-248h52v208h133V0H24" id="bd"/><path fill="#3a414a" d="M135-194c52 0 70 43 70 98 0 56-19 99-73 100-30 1-46-15-58-35L72 0H24l1-261h50v104c11-23 29-37 60-37zM114-30c31 0 40-27 40-66 0-37-7-63-39-63s-41 28-41 65c0 36 8 64 40 64" id="be"/><g id="m"><use transform="matrix(0.08641975308641973,0,0,0.08641975308641973,0,0)" xlink:href="#bd"/><use transform="matrix(0.08641975308641973,0,0,0.08641975308641973,18.92592592592592,0)" xlink:href="#aI"/><use transform="matrix(0.08641975308641973,0,0,0.08641975308641973,36.209876543209866,0)" xlink:href="#be"/></g><path fill="#3a414a" d="M230 0l2-204L168 0h-37L68-204 70 0H24v-248h70l56 185 57-185h69V0h-46" id="bf"/><g id="n"><use transform="matrix(0.08641975308641973,0,0,0.08641975308641973,0,0)" xlink:href="#bf"/><use transform="matrix(0.08641975308641973,0,0,0.08641975308641973,25.8395061728395,0)" xlink:href="#aK"/><use transform="matrix(0.08641975308641973,0,0,0.08641975308641973,43.12345679012344,0)" xlink:href="#aW"/><use transform="matrix(0.08641975308641973,0,0,0.08641975308641973,62.04938271604937,0)" xlink:href="#aF"/><use transform="matrix(0.08641975308641973,0,0,0.08641975308641973,70.69135802469134,0)" xlink:href="#aH"/><use transform="matrix(0.08641975308641973,0,0,0.08641975308641973,87.97530864197529,0)" xlink:href="#aF"/><use transform="matrix(0.08641975308641973,0,0,0.08641975308641973,96.61728395061726,0)" xlink:href="#aG"/><use transform="matrix(0.08641975308641973,0,0,0.08641975308641973,115.54320987654319,0)" xlink:href="#aK"/></g><g id="o"><use transform="matrix(0.08641975308641973,0,0,0.08641975308641973,0,0)" xlink:href="#bc"/><use transform="matrix(0.08641975308641973,0,0,0.08641975308641973,20.740740740740737,0)" xlink:href="#aK"/><use transform="matrix(0.08641975308641973,0,0,0.08641975308641973,38.02469135802468,0)" xlink:href="#aW"/><use transform="matrix(0.08641975308641973,0,0,0.08641975308641973,56.950617283950606,0)" xlink:href="#aF"/><use transform="matrix(0.08641975308641973,0,0,0.08641975308641973,65.59259259259258,0)" xlink:href="#aI"/><use transform="matrix(0.08641975308641973,0,0,0.08641975308641973,82.87654320987653,0)" xlink:href="#aN"/><use transform="matrix(0.08641975308641973,0,0,0.08641975308641973,93.16049382716048,0)" xlink:href="#aM"/><use transform="matrix(0.08641975308641973,0,0,0.08641975308641973,105.25925925925924,0)" xlink:href="#aF"/><use transform="matrix(0.08641975308641973,0,0,0.08641975308641973,113.90123456790121,0)" xlink:href="#aH"/><use transform="matrix(0.08641975308641973,0,0,0.08641975308641973,131.18518518518516,0)" xlink:href="#aP"/></g><path fill="#3a414a" d="M85 4C-2 5 27-109 22-190h50c7 57-23 150 33 157 60-5 35-97 40-157h50l1 190h-47c-2-12 1-28-3-38-12 25-28 42-61 42" id="bg"/><g id="p"><use transform="matrix(0.08641975308641973,0,0,0.08641975308641973,0,0)" xlink:href="#aZ"/><use transform="matrix(0.08641975308641973,0,0,0.08641975308641973,20.740740740740737,0)" xlink:href="#bg"/><use transform="matrix(0.08641975308641973,0,0,0.08641975308641973,39.66666666666666,0)" xlink:href="#aM"/><use transform="matrix(0.08641975308641973,0,0,0.08641975308641973,51.76543209876541,0)" xlink:href="#aX"/><use transform="matrix(0.08641975308641973,0,0,0.08641975308641973,70.69135802469134,0)" xlink:href="#aK"/><use transform="matrix(0.08641975308641973,0,0,0.08641975308641973,87.97530864197529,0)" xlink:href="#aM"/><use transform="matrix(0.08641975308641973,0,0,0.08641975308641973,100.07407407407405,0)" xlink:href="#aY"/></g><g id="q"><use transform="matrix(0.08641975308641973,0,0,0.08641975308641973,0,0)" xlink:href="#aQ"/><use transform="matrix(0.08641975308641973,0,0,0.08641975308641973,22.38271604938271,0)" xlink:href="#aF"/><use transform="matrix(0.08641975308641973,0,0,0.08641975308641973,31.024691358024686,0)" xlink:href="#aT"/><use transform="matrix(0.08641975308641973,0,0,0.08641975308641973,49.950617283950606,0)" xlink:href="#aO"/><use transform="matrix(0.08641975308641973,0,0,0.08641975308641973,77.60493827160492,0)" xlink:href="#aK"/><use transform="matrix(0.08641975308641973,0,0,0.08641975308641973,94.88888888888887,0)" xlink:href="#aW"/><use transform="matrix(0.08641975308641973,0,0,0.08641975308641973,113.8148148148148,0)" xlink:href="#aF"/><use transform="matrix(0.08641975308641973,0,0,0.08641975308641973,122.45679012345677,0)" xlink:href="#aH"/><use transform="matrix(0.08641975308641973,0,0,0.08641975308641973,139.7407407407407,0)" xlink:href="#aI"/><use transform="matrix(0.08641975308641973,0,0,0.08641975308641973,157.02469135802465,0)" xlink:href="#aE"/></g><use transform="matrix(0.08641975308641973,0,0,0.08641975308641973,0,0)" xlink:href="#bb" id="r"/><g id="s"><use transform="matrix(0.08641975308641973,0,0,0.08641975308641973,0,0)" xlink:href="#aU"/><use transform="matrix(0.08641975308641973,0,0,0.08641975308641973,22.38271604938271,0)" xlink:href="#aK"/><use transform="matrix(0.08641975308641973,0,0,0.08641975308641973,39.66666666666666,0)" xlink:href="#aI"/><use transform="matrix(0.08641975308641973,0,0,0.08641975308641973,56.950617283950606,0)" xlink:href="#aE"/><use transform="matrix(0.08641975308641973,0,0,0.08641975308641973,65.59259259259258,0)" xlink:href="#aN"/><use transform="matrix(0.08641975308641973,0,0,0.08641975308641973,75.87654320987653,0)" xlink:href="#aR"/></g><path fill="#3a414a" d="M24 0v-248h52V0H24" id="bh"/><path fill="#3a414a" d="M121-226c-27-7-43 5-38 36h38v33H83V0H34v-157H6v-33h28c-9-59 32-81 87-68v32" id="bi"/><g id="t"><use transform="matrix(0.08641975308641973,0,0,0.08641975308641973,0,0)" xlink:href="#bh"/><use transform="matrix(0.08641975308641973,0,0,0.08641975308641973,8.641975308641973,0)" xlink:href="#aG"/><use transform="matrix(0.08641975308641973,0,0,0.08641975308641973,27.56790123456789,0)" xlink:href="#bi"/><use transform="matrix(0.08641975308641973,0,0,0.08641975308641973,37.85185185185184,0)" xlink:href="#aT"/><use transform="matrix(0.08641975308641973,0,0,0.08641975308641973,56.77777777777776,0)" xlink:href="#aM"/><use transform="matrix(0.08641975308641973,0,0,0.08641975308641973,68.87654320987652,0)" xlink:href="#aO"/><use transform="matrix(0.08641975308641973,0,0,0.08641975308641973,96.53086419753082,0)" xlink:href="#aI"/><use transform="matrix(0.08641975308641973,0,0,0.08641975308641973,113.8148148148148,0)" xlink:href="#aN"/><use transform="matrix(0.08641975308641973,0,0,0.08641975308641973,124.09876543209874,0)" xlink:href="#aF"/><use transform="matrix(0.08641975308641973,0,0,0.08641975308641973,132.7407407407407,0)" xlink:href="#aH"/><use transform="matrix(0.08641975308641973,0,0,0.08641975308641973,150.02469135802465,0)" xlink:href="#aP"/></g><path fill="#3a414a" d="M175 0L67-191c6 58 2 128 3 191H24v-248h59L193-55c-6-58-2-129-3-193h46V0h-61" id="bj"/><g id="u"><use transform="matrix(0.08641975308641973,0,0,0.08641975308641973,0,0)" xlink:href="#bj"/><use transform="matrix(0.08641975308641973,0,0,0.08641975308641973,22.38271604938271,0)" xlink:href="#aK"/><use transform="matrix(0.08641975308641973,0,0,0.08641975308641973,39.66666666666666,0)" xlink:href="#aT"/><use transform="matrix(0.08641975308641973,0,0,0.08641975308641973,58.59259259259258,0)" xlink:href="#aG"/><use transform="matrix(0.08641975308641973,0,0,0.08641975308641973,77.5185185185185,0)" xlink:href="#aI"/><use transform="matrix(0.08641975308641973,0,0,0.08641975308641973,94.80246913580245,0)" xlink:href="#aN"/><use transform="matrix(0.08641975308641973,0,0,0.08641975308641973,105.0864197530864,0)" xlink:href="#aT"/><use transform="matrix(0.08641975308641973,0,0,0.08641975308641973,124.01234567901231,0)" xlink:href="#aE"/><use transform="matrix(0.08641975308641973,0,0,0.08641975308641973,132.6543209876543,0)" xlink:href="#aT"/><use transform="matrix(0.08641975308641973,0,0,0.08641975308641973,151.58024691358023,0)" xlink:href="#aX"/><use transform="matrix(0.08641975308641973,0,0,0.08641975308641973,170.50617283950615,0)" xlink:href="#aY"/></g><g id="v"><use transform="matrix(0.08641975308641973,0,0,0.08641975308641973,0,0)" xlink:href="#aD"/><use transform="matrix(0.08641975308641973,0,0,0.08641975308641973,22.38271604938271,0)" xlink:href="#aM"/><use transform="matrix(0.08641975308641973,0,0,0.08641975308641973,34.481481481481474,0)" xlink:href="#aF"/><use transform="matrix(0.08641975308641973,0,0,0.08641975308641973,43.12345679012345,0)" xlink:href="#aN"/><use transform="matrix(0.08641975308641973,0,0,0.08641975308641973,53.4074074074074,0)" xlink:href="#aF"/><use transform="matrix(0.08641975308641973,0,0,0.08641975308641973,62.04938271604937,0)" xlink:href="#aH"/><use transform="matrix(0.08641975308641973,0,0,0.08641975308641973,79.33333333333331,0)" xlink:href="#aI"/><use transform="matrix(0.08641975308641973,0,0,0.08641975308641973,96.61728395061726,0)" xlink:href="#aE"/></g><g id="w"><use transform="matrix(0.08641975308641973,0,0,0.08641975308641973,0,0)" xlink:href="#aD"/><use transform="matrix(0.08641975308641973,0,0,0.08641975308641973,22.38271604938271,0)" xlink:href="#aI"/><use transform="matrix(0.08641975308641973,0,0,0.08641975308641973,39.66666666666666,0)" xlink:href="#aM"/><use transform="matrix(0.08641975308641973,0,0,0.08641975308641973,51.76543209876541,0)" xlink:href="#aK"/></g><path fill="#3a414a" d="M24 0v-248h195v40H76v63h132v40H76v65h150V0H24" id="bk"/><g id="x"><use transform="matrix(0.08641975308641973,0,0,0.08641975308641973,0,0)" xlink:href="#bk"/><use transform="matrix(0.08641975308641973,0,0,0.08641975308641973,20.740740740740737,0)" xlink:href="#aO"/><use transform="matrix(0.08641975308641973,0,0,0.08641975308641973,48.39506172839505,0)" xlink:href="#aK"/><use transform="matrix(0.08641975308641973,0,0,0.08641975308641973,65.679012345679,0)" xlink:href="#aM"/><use transform="matrix(0.08641975308641973,0,0,0.08641975308641973,77.77777777777776,0)" xlink:href="#aX"/><use transform="matrix(0.08641975308641973,0,0,0.08641975308641973,96.70370370370368,0)" xlink:href="#aK"/><use transform="matrix(0.08641975308641973,0,0,0.08641975308641973,113.98765432098763,0)" xlink:href="#aG"/><use transform="matrix(0.08641975308641973,0,0,0.08641975308641973,132.91358024691354,0)" xlink:href="#aH"/><use transform="matrix(0.08641975308641973,0,0,0.08641975308641973,150.1975308641975,0)" xlink:href="#aY"/></g><g id="y"><use transform="matrix(0.08641975308641973,0,0,0.08641975308641973,0,0)" xlink:href="#aJ"/><use transform="matrix(0.08641975308641973,0,0,0.08641975308641973,22.38271604938271,0)" xlink:href="#aK"/><use transform="matrix(0.08641975308641973,0,0,0.08641975308641973,39.66666666666666,0)" xlink:href="#aL"/><use transform="matrix(0.08641975308641973,0,0,0.08641975308641973,58.59259259259258,0)" xlink:href="#aI"/><use transform="matrix(0.08641975308641973,0,0,0.08641975308641973,75.87654320987653,0)" xlink:href="#aM"/><use transform="matrix(0.08641975308641973,0,0,0.08641975308641973,87.97530864197529,0)" xlink:href="#aN"/><use transform="matrix(0.08641975308641973,0,0,0.08641975308641973,98.25925925925924,0)" xlink:href="#aO"/><use transform="matrix(0.08641975308641973,0,0,0.08641975308641973,125.91358024691355,0)" xlink:href="#aK"/><use transform="matrix(0.08641975308641973,0,0,0.08641975308641973,143.1975308641975,0)" xlink:href="#aG"/><use transform="matrix(0.08641975308641973,0,0,0.08641975308641973,162.1234567901234,0)" xlink:href="#aN"/></g><path fill="#3a414a" d="M140-251c80 0 125 45 125 126S219 4 139 4C58 4 15-44 15-125s44-126 125-126zm-1 214c52 0 73-35 73-88 0-50-21-86-72-86-52 0-73 35-73 86s22 88 72 88" id="bl"/><g id="z"><use transform="matrix(0.08641975308641973,0,0,0.08641975308641973,0,0)" xlink:href="#bl"/><use transform="matrix(0.08641975308641973,0,0,0.08641975308641973,24.197530864197525,0)" xlink:href="#aG"/><use transform="matrix(0.08641975308641973,0,0,0.08641975308641973,43.12345679012344,0)" xlink:href="#aH"/><use transform="matrix(0.08641975308641973,0,0,0.08641975308641973,60.4074074074074,0)" xlink:href="#aT"/><use transform="matrix(0.08641975308641973,0,0,0.08641975308641973,79.33333333333331,0)" xlink:href="#aE"/><use transform="matrix(0.08641975308641973,0,0,0.08641975308641973,87.97530864197529,0)" xlink:href="#aT"/><use transform="matrix(0.08641975308641973,0,0,0.08641975308641973,106.90123456790121,0)" xlink:href="#aX"/><use transform="matrix(0.08641975308641973,0,0,0.08641975308641973,125.82716049382714,0)" xlink:href="#aY"/></g><g id="A"><use transform="matrix(0.08641975308641973,0,0,0.08641975308641973,0,0)" xlink:href="#aD"/><use transform="matrix(0.08641975308641973,0,0,0.08641975308641973,22.38271604938271,0)" xlink:href="#aI"/><use transform="matrix(0.08641975308641973,0,0,0.08641975308641973,39.66666666666666,0)" xlink:href="#aM"/><use transform="matrix(0.08641975308641973,0,0,0.08641975308641973,51.76543209876541,0)" xlink:href="#aW"/><use transform="matrix(0.08641975308641973,0,0,0.08641975308641973,70.69135802469134,0)" xlink:href="#aF"/><use transform="matrix(0.08641975308641973,0,0,0.08641975308641973,79.33333333333331,0)" xlink:href="#aT"/><use transform="matrix(0.08641975308641973,0,0,0.08641975308641973,98.25925925925924,0)" xlink:href="#aE"/><use transform="matrix(0.08641975308641973,0,0,0.08641975308641973,106.90123456790121,0)" xlink:href="#aT"/><use transform="matrix(0.08641975308641973,0,0,0.08641975308641973,125.82716049382714,0)" xlink:href="#aX"/><use transform="matrix(0.08641975308641973,0,0,0.08641975308641973,144.75308641975306,0)" xlink:href="#aY"/></g><g id="B"><use transform="matrix(0.08641975308641973,0,0,0.08641975308641973,0,0)" xlink:href="#bl"/><use transform="matrix(0.08641975308641973,0,0,0.08641975308641973,24.197530864197525,0)" xlink:href="#aL"/><use transform="matrix(0.08641975308641973,0,0,0.08641975308641973,43.12345679012344,0)" xlink:href="#aK"/><use transform="matrix(0.08641975308641973,0,0,0.08641975308641973,60.4074074074074,0)" xlink:href="#aM"/><use transform="matrix(0.08641975308641973,0,0,0.08641975308641973,72.50617283950615,0)" xlink:href="#aI"/><use transform="matrix(0.08641975308641973,0,0,0.08641975308641973,89.7901234567901,0)" xlink:href="#aN"/><use transform="matrix(0.08641975308641973,0,0,0.08641975308641973,100.07407407407405,0)" xlink:href="#aF"/><use transform="matrix(0.08641975308641973,0,0,0.08641975308641973,108.71604938271602,0)" xlink:href="#aT"/><use transform="matrix(0.08641975308641973,0,0,0.08641975308641973,127.64197530864195,0)" xlink:href="#aG"/><use transform="matrix(0.08641975308641973,0,0,0.08641975308641973,146.56790123456787,0)" xlink:href="#aP"/></g><g id="C"><use transform="matrix(0.08641975308641973,0,0,0.08641975308641973,0,0)" xlink:href="#aZ"/><use transform="matrix(0.08641975308641973,0,0,0.08641975308641973,20.740740740740737,0)" xlink:href="#aI"/><use transform="matrix(0.08641975308641973,0,0,0.08641975308641973,38.02469135802468,0)" xlink:href="#bi"/><use transform="matrix(0.08641975308641973,0,0,0.08641975308641973,48.30864197530863,0)" xlink:href="#aK"/><use transform="matrix(0.08641975308641973,0,0,0.08641975308641973,65.59259259259258,0)" xlink:href="#aN"/><use transform="matrix(0.08641975308641973,0,0,0.08641975308641973,75.87654320987653,0)" xlink:href="#aY"/></g><g id="D"><use transform="matrix(0.08641975308641973,0,0,0.08641975308641973,0,0)" xlink:href="#aI"/><use transform="matrix(0.08641975308641973,0,0,0.08641975308641973,17.283950617283946,0)" xlink:href="#aG"/><use transform="matrix(0.08641975308641973,0,0,0.08641975308641973,36.209876543209866,0)" xlink:href="#aW"/></g><path fill="#3a414a" d="M140-251c80 0 125 45 125 126 0 70-33 111-92 124 6 28 34 38 68 31l-1 36C177 83 129 55 120 2 51-6 15-50 15-125c0-81 44-126 125-126zm-1 214c52 0 73-35 73-88 0-50-21-86-72-86-52 0-73 35-73 86s22 88 72 88" id="bm"/><g id="E"><use transform="matrix(0.08641975308641973,0,0,0.08641975308641973,0,0)" xlink:href="#bm"/><use transform="matrix(0.08641975308641973,0,0,0.08641975308641973,24.197530864197525,0)" xlink:href="#bg"/><use transform="matrix(0.08641975308641973,0,0,0.08641975308641973,43.12345679012344,0)" xlink:href="#aI"/><use transform="matrix(0.08641975308641973,0,0,0.08641975308641973,60.4074074074074,0)" xlink:href="#aE"/><use transform="matrix(0.08641975308641973,0,0,0.08641975308641973,69.04938271604937,0)" xlink:href="#aF"/><use transform="matrix(0.08641975308641973,0,0,0.08641975308641973,77.69135802469134,0)" xlink:href="#aN"/><use transform="matrix(0.08641975308641973,0,0,0.08641975308641973,87.97530864197529,0)" xlink:href="#aY"/></g><g id="F"><use transform="matrix(0.08641975308641973,0,0,0.08641975308641973,0,0)" xlink:href="#bj"/><use transform="matrix(0.08641975308641973,0,0,0.08641975308641973,22.38271604938271,0)" xlink:href="#bg"/><use transform="matrix(0.08641975308641973,0,0,0.08641975308641973,41.30864197530863,0)" xlink:href="#aM"/><use transform="matrix(0.08641975308641973,0,0,0.08641975308641973,53.40740740740738,0)" xlink:href="#aP"/><use transform="matrix(0.08641975308641973,0,0,0.08641975308641973,70.69135802469134,0)" xlink:href="#aF"/><use transform="matrix(0.08641975308641973,0,0,0.08641975308641973,79.33333333333331,0)" xlink:href="#aG"/><use transform="matrix(0.08641975308641973,0,0,0.08641975308641973,98.25925925925924,0)" xlink:href="#aX"/></g><g id="G"><use transform="matrix(0.08641975308641973,0,0,0.08641975308641973,0,0)" xlink:href="#aD"/><use transform="matrix(0.08641975308641973,0,0,0.08641975308641973,22.38271604938271,0)" xlink:href="#aI"/><use transform="matrix(0.08641975308641973,0,0,0.08641975308641973,39.66666666666666,0)" xlink:href="#aL"/><use transform="matrix(0.08641975308641973,0,0,0.08641975308641973,58.59259259259258,0)" xlink:href="#aI"/><use transform="matrix(0.08641975308641973,0,0,0.08641975308641973,75.87654320987653,0)" xlink:href="#aH"/><use transform="matrix(0.08641975308641973,0,0,0.08641975308641973,93.16049382716048,0)" xlink:href="#aF"/><use transform="matrix(0.08641975308641973,0,0,0.08641975308641973,101.80246913580245,0)" xlink:href="#aN"/><use transform="matrix(0.08641975308641973,0,0,0.08641975308641973,112.08641975308639,0)" xlink:href="#aY"/></g><g id="H"><use transform="matrix(0.08641975308641973,0,0,0.08641975308641973,0,0)" xlink:href="#bf"/><use transform="matrix(0.08641975308641973,0,0,0.08641975308641973,25.8395061728395,0)" xlink:href="#aI"/><use transform="matrix(0.08641975308641973,0,0,0.08641975308641973,43.12345679012344,0)" xlink:href="#aG"/><use transform="matrix(0.08641975308641973,0,0,0.08641975308641973,62.04938271604937,0)" xlink:href="#aI"/><use transform="matrix(0.08641975308641973,0,0,0.08641975308641973,79.33333333333331,0)" xlink:href="#aX"/><use transform="matrix(0.08641975308641973,0,0,0.08641975308641973,98.25925925925924,0)" xlink:href="#aK"/><use transform="matrix(0.08641975308641973,0,0,0.08641975308641973,115.54320987654319,0)" xlink:href="#aO"/><use transform="matrix(0.08641975308641973,0,0,0.08641975308641973,143.19753086419752,0)" xlink:href="#aK"/><use transform="matrix(0.08641975308641973,0,0,0.08641975308641973,160.48148148148147,0)" xlink:href="#aG"/><use transform="matrix(0.08641975308641973,0,0,0.08641975308641973,179.40740740740742,0)" xlink:href="#aN"/></g><g id="I"><use transform="matrix(0.08641975308641973,0,0,0.08641975308641973,0,0)" xlink:href="#bh"/><use transform="matrix(0.08641975308641973,0,0,0.08641975308641973,8.641975308641973,0)" xlink:href="#aG"/><use transform="matrix(0.08641975308641973,0,0,0.08641975308641973,27.56790123456789,0)" xlink:href="#aL"/><use transform="matrix(0.08641975308641973,0,0,0.08641975308641973,46.49382716049381,0)" xlink:href="#aI"/><use transform="matrix(0.08641975308641973,0,0,0.08641975308641973,63.77777777777776,0)" xlink:href="#aN"/><use transform="matrix(0.08641975308641973,0,0,0.08641975308641973,74.0617283950617,0)" xlink:href="#aF"/><use transform="matrix(0.08641975308641973,0,0,0.08641975308641973,82.70370370370368,0)" xlink:href="#aK"/><use transform="matrix(0.08641975308641973,0,0,0.08641975308641973,99.98765432098763,0)" xlink:href="#aG"/><use transform="matrix(0.08641975308641973,0,0,0.08641975308641973,118.91358024691355,0)" xlink:href="#aN"/></g><g id="J"><use transform="matrix(0.08641975308641973,0,0,0.08641975308641973,0,0)" xlink:href="#aD"/><use transform="matrix(0.08641975308641973,0,0,0.08641975308641973,22.38271604938271,0)" xlink:href="#aI"/><use transform="matrix(0.08641975308641973,0,0,0.08641975308641973,39.66666666666666,0)" xlink:href="#aM"/><use transform="matrix(0.08641975308641973,0,0,0.08641975308641973,51.76543209876541,0)" xlink:href="#aK"/></g><path fill="#3a414a" d="M231 0h-52l-39-155L100 0H48L-1-190h46L77-45c9-52 24-97 36-145h53l37 145 32-145h46" id="bn"/><path fill="#3a414a" d="M147 0L96-86 75-71V0H25v-261h50v150l67-79h53l-66 74L201 0h-54" id="bo"/><g id="K"><use transform="matrix(0.08641975308641973,0,0,0.08641975308641973,0,0)" xlink:href="#bj"/><use transform="matrix(0.08641975308641973,0,0,0.08641975308641973,22.38271604938271,0)" xlink:href="#aK"/><use transform="matrix(0.08641975308641973,0,0,0.08641975308641973,39.66666666666666,0)" xlink:href="#aN"/><use transform="matrix(0.08641975308641973,0,0,0.08641975308641973,49.950617283950606,0)" xlink:href="#bn"/><use transform="matrix(0.08641975308641973,0,0,0.08641975308641973,74.14814814814812,0)" xlink:href="#aT"/><use transform="matrix(0.08641975308641973,0,0,0.08641975308641973,93.07407407407405,0)" xlink:href="#aM"/><use transform="matrix(0.08641975308641973,0,0,0.08641975308641973,105.17283950617279,0)" xlink:href="#bo"/></g><g id="L"><use transform="matrix(0.08641975308641973,0,0,0.08641975308641973,0,0)" xlink:href="#aZ"/><use transform="matrix(0.08641975308641973,0,0,0.08641975308641973,20.740740740740737,0)" xlink:href="#aL"/><use transform="matrix(0.08641975308641973,0,0,0.08641975308641973,39.66666666666666,0)" xlink:href="#aK"/><use transform="matrix(0.08641975308641973,0,0,0.08641975308641973,56.950617283950606,0)" xlink:href="#aH"/><use transform="matrix(0.08641975308641973,0,0,0.08641975308641973,74.23456790123456,0)" xlink:href="#aF"/><use transform="matrix(0.08641975308641973,0,0,0.08641975308641973,82.87654320987653,0)" xlink:href="#aI"/><use transform="matrix(0.08641975308641973,0,0,0.08641975308641973,100.16049382716047,0)" xlink:href="#aE"/><use transform="matrix(0.08641975308641973,0,0,0.08641975308641973,108.80246913580244,0)" xlink:href="#aN"/><use transform="matrix(0.08641975308641973,0,0,0.08641975308641973,119.08641975308639,0)" xlink:href="#aY"/></g><path fill="#3a414a" d="M238-95c0 69-44 99-111 99C63 4 22-25 22-93v-155h51v151c-1 38 19 59 55 60 90 1 49-130 58-211h52v153" id="bp"/><g id="M"><use transform="matrix(0.08641975308641973,0,0,0.08641975308641973,0,0)" xlink:href="#bp"/><use transform="matrix(0.08641975308641973,0,0,0.08641975308641973,22.38271604938271,0)" xlink:href="#aM"/><use transform="matrix(0.08641975308641973,0,0,0.08641975308641973,34.481481481481474,0)" xlink:href="#aX"/><use transform="matrix(0.08641975308641973,0,0,0.08641975308641973,53.40740740740738,0)" xlink:href="#aK"/><use transform="matrix(0.08641975308641973,0,0,0.08641975308641973,70.69135802469134,0)" xlink:href="#aG"/><use transform="matrix(0.08641975308641973,0,0,0.08641975308641973,89.61728395061726,0)" xlink:href="#aN"/></g><g id="N"><use transform="matrix(0.08641975308641973,0,0,0.08641975308641973,0,0)" xlink:href="#aU"/><use transform="matrix(0.08641975308641973,0,0,0.08641975308641973,22.38271604938271,0)" xlink:href="#aT"/><use transform="matrix(0.08641975308641973,0,0,0.08641975308641973,41.30864197530863,0)" xlink:href="#aO"/><use transform="matrix(0.08641975308641973,0,0,0.08641975308641973,68.96296296296295,0)" xlink:href="#aK"/></g><g id="O"><use transform="matrix(0.08641975308641973,0,0,0.08641975308641973,0,0)" xlink:href="#bc"/><use transform="matrix(0.08641975308641973,0,0,0.08641975308641973,20.740740740740737,0)" xlink:href="#aM"/><use transform="matrix(0.08641975308641973,0,0,0.08641975308641973,32.8395061728395,0)" xlink:href="#aF"/><use transform="matrix(0.08641975308641973,0,0,0.08641975308641973,41.481481481481474,0)" xlink:href="#aO"/><use transform="matrix(0.08641975308641973,0,0,0.08641975308641973,69.1358024691358,0)" xlink:href="#aI"/><use transform="matrix(0.08641975308641973,0,0,0.08641975308641973,86.41975308641975,0)" xlink:href="#aM"/><use transform="matrix(0.08641975308641973,0,0,0.08641975308641973,98.51851851851849,0)" xlink:href="#aY"/></g><g id="P"><use transform="matrix(0.08641975308641973,0,0,0.08641975308641973,0,0)" xlink:href="#bc"/><use transform="matrix(0.08641975308641973,0,0,0.08641975308641973,20.740740740740737,0)" xlink:href="#aM"/><use transform="matrix(0.08641975308641973,0,0,0.08641975308641973,32.8395061728395,0)" xlink:href="#aT"/><use transform="matrix(0.08641975308641973,0,0,0.08641975308641973,51.76543209876541,0)" xlink:href="#aX"/><use transform="matrix(0.08641975308641973,0,0,0.08641975308641973,70.69135802469134,0)" xlink:href="#aM"/><use transform="matrix(0.08641975308641973,0,0,0.08641975308641973,82.7901234567901,0)" xlink:href="#aI"/><use transform="matrix(0.08641975308641973,0,0,0.08641975308641973,100.07407407407405,0)" xlink:href="#aO"/><use transform="matrix(0.08641975308641973,0,0,0.08641975308641973,127.72839506172836,0)" xlink:href="#aP"/></g><g id="Q"><use transform="matrix(0.08641975308641973,0,0,0.08641975308641973,0,0)" xlink:href="#bc"/><use transform="matrix(0.08641975308641973,0,0,0.08641975308641973,20.740740740740737,0)" xlink:href="#aI"/><use transform="matrix(0.08641975308641973,0,0,0.08641975308641973,38.02469135802468,0)" xlink:href="#aN"/><use transform="matrix(0.08641975308641973,0,0,0.08641975308641973,48.30864197530863,0)" xlink:href="#aR"/><use transform="matrix(0.08641975308641973,0,0,0.08641975308641973,67.23456790123456,0)" xlink:href="#bn"/><use transform="matrix(0.08641975308641973,0,0,0.08641975308641973,91.43209876543207,0)" xlink:href="#aI"/><use transform="matrix(0.08641975308641973,0,0,0.08641975308641973,108.71604938271602,0)" xlink:href="#aY"/><use transform="matrix(0.08641975308641973,0,0,0.08641975308641973,125.99999999999997,0)" xlink:href="#aP"/></g><path fill="#3a414a" d="M76-208v77h127v40H76V0H24v-248h183v40H76" id="bq"/><path fill="#3a414a" d="M182 0l-62-99L58 0H3l86-130-79-118h55l55 88 55-88h55l-75 118L237 0h-55" id="br"/><g id="R"><use transform="matrix(0.08641975308641973,0,0,0.08641975308641973,0,0)" xlink:href="#bc"/><use transform="matrix(0.08641975308641973,0,0,0.08641975308641973,20.740740740740737,0)" xlink:href="#bq"/><use transform="matrix(0.08641975308641973,0,0,0.08641975308641973,39.66666666666666,0)" xlink:href="#bk"/><use transform="matrix(0.08641975308641973,0,0,0.08641975308641973,60.4074074074074,0)" xlink:href="#br"/></g><g id="S"><use transform="matrix(0.08641975308641973,0,0,0.08641975308641973,0,0)" xlink:href="#bc"/><use transform="matrix(0.08641975308641973,0,0,0.08641975308641973,20.740740740740737,0)" xlink:href="#aT"/><use transform="matrix(0.08641975308641973,0,0,0.08641975308641973,39.66666666666666,0)" xlink:href="#aL"/><use transform="matrix(0.08641975308641973,0,0,0.08641975308641973,58.59259259259258,0)" xlink:href="#bg"/><use transform="matrix(0.08641975308641973,0,0,0.08641975308641973,77.5185185185185,0)" xlink:href="#aE"/><use transform="matrix(0.08641975308641973,0,0,0.08641975308641973,86.16049382716048,0)" xlink:href="#aI"/><use transform="matrix(0.08641975308641973,0,0,0.08641975308641973,103.44444444444443,0)" xlink:href="#aN"/><use transform="matrix(0.08641975308641973,0,0,0.08641975308641973,113.72839506172836,0)" xlink:href="#aF"/><use transform="matrix(0.08641975308641973,0,0,0.08641975308641973,122.37037037037034,0)" xlink:href="#aT"/><use transform="matrix(0.08641975308641973,0,0,0.08641975308641973,141.29629629629628,0)" xlink:href="#aG"/></g><g id="T"><use transform="matrix(0.08641975308641973,0,0,0.08641975308641973,0,0)" xlink:href="#bq"/><use transform="matrix(0.08641975308641973,0,0,0.08641975308641973,18.92592592592592,0)" xlink:href="#aM"/><use transform="matrix(0.08641975308641973,0,0,0.08641975308641973,31.024691358024686,0)" xlink:href="#aT"/><use transform="matrix(0.08641975308641973,0,0,0.08641975308641973,49.950617283950606,0)" xlink:href="#aG"/><use transform="matrix(0.08641975308641973,0,0,0.08641975308641973,68.87654320987653,0)" xlink:href="#aN"/><use transform="matrix(0.08641975308641973,0,0,0.08641975308641973,79.16049382716048,0)" xlink:href="#aF"/><use transform="matrix(0.08641975308641973,0,0,0.08641975308641973,87.80246913580245,0)" xlink:href="#aK"/><use transform="matrix(0.08641975308641973,0,0,0.08641975308641973,105.0864197530864,0)" xlink:href="#aM"/></g><g id="U"><use transform="matrix(0.08641975308641973,0,0,0.08641975308641973,0,0)" xlink:href="#aZ"/><use transform="matrix(0.08641975308641973,0,0,0.08641975308641973,20.740740740740737,0)" xlink:href="#aK"/><use transform="matrix(0.08641975308641973,0,0,0.08641975308641973,38.02469135802468,0)" xlink:href="#aM"/><use transform="matrix(0.08641975308641973,0,0,0.08641975308641973,50.12345679012345,0)" xlink:href="#aS"/><use transform="matrix(0.08641975308641973,0,0,0.08641975308641973,67.40740740740739,0)" xlink:href="#aF"/><use transform="matrix(0.08641975308641973,0,0,0.08641975308641973,76.04938271604937,0)" xlink:href="#aH"/><use transform="matrix(0.08641975308641973,0,0,0.08641975308641973,93.33333333333331,0)" xlink:href="#aK"/></g><g id="V"><use transform="matrix(0.08641975308641973,0,0,0.08641975308641973,0,0)" xlink:href="#bd"/><use transform="matrix(0.08641975308641973,0,0,0.08641975308641973,18.92592592592592,0)" xlink:href="#aF"/><use transform="matrix(0.08641975308641973,0,0,0.08641975308641973,27.56790123456789,0)" xlink:href="#aG"/><use transform="matrix(0.08641975308641973,0,0,0.08641975308641973,46.49382716049381,0)" xlink:href="#aK"/></g><path fill="#3a414a" d="M67-125c0 54 23 88 75 88 28 0 53-7 68-21v-34h-60v-39h108v91C232-14 192 4 140 4 58 4 20-42 15-125 8-236 126-280 215-234c19 10 29 26 37 47l-47 15c-11-23-29-39-63-39-53 1-75 33-75 86" id="bs"/><g id="W"><use transform="matrix(0.08641975308641973,0,0,0.08641975308641973,0,0)" xlink:href="#bs"/><use transform="matrix(0.08641975308641973,0,0,0.08641975308641973,24.197530864197525,0)" xlink:href="#aM"/><use transform="matrix(0.08641975308641973,0,0,0.08641975308641973,36.29629629629629,0)" xlink:href="#aT"/><use transform="matrix(0.08641975308641973,0,0,0.08641975308641973,55.22222222222221,0)" xlink:href="#bn"/><use transform="matrix(0.08641975308641973,0,0,0.08641975308641973,79.41975308641975,0)" xlink:href="#aN"/><use transform="matrix(0.08641975308641973,0,0,0.08641975308641973,89.70370370370371,0)" xlink:href="#aR"/></g><g id="X"><use transform="matrix(0.12345679012345674,0,0,0.12345679012345674,0,0)" xlink:href="#bl"/><use transform="matrix(0.12345679012345674,0,0,0.12345679012345674,34.567901234567884,0)" xlink:href="#aL"/><use transform="matrix(0.12345679012345674,0,0,0.12345679012345674,61.60493827160491,0)" xlink:href="#aK"/><use transform="matrix(0.12345679012345674,0,0,0.12345679012345674,86.29629629629625,0)" xlink:href="#aM"/><use transform="matrix(0.12345679012345674,0,0,0.12345679012345674,103.5802469135802,0)" xlink:href="#aI"/><use transform="matrix(0.12345679012345674,0,0,0.12345679012345674,128.27160493827154,0)" xlink:href="#aN"/><use transform="matrix(0.12345679012345674,0,0,0.12345679012345674,142.96296296296288,0)" xlink:href="#aF"/><use transform="matrix(0.12345679012345674,0,0,0.12345679012345674,155.30864197530855,0)" xlink:href="#aT"/><use transform="matrix(0.12345679012345674,0,0,0.12345679012345674,182.34567901234558,0)" xlink:href="#aG"/><use transform="matrix(0.12345679012345674,0,0,0.12345679012345674,209.38271604938262,0)" xlink:href="#aP"/></g><g id="Y"><use transform="matrix(0.12345679012345674,0,0,0.12345679012345674,0,0)" xlink:href="#aU"/><use transform="matrix(0.12345679012345674,0,0,0.12345679012345674,31.975308641975296,0)" xlink:href="#bg"/><use transform="matrix(0.12345679012345674,0,0,0.12345679012345674,59.01234567901233,0)" xlink:href="#aO"/><use transform="matrix(0.12345679012345674,0,0,0.12345679012345674,98.51851851851848,0)" xlink:href="#aI"/><use transform="matrix(0.12345679012345674,0,0,0.12345679012345674,123.20987654320982,0)" xlink:href="#aG"/></g><g id="Z"><use transform="matrix(0.12345679012345674,0,0,0.12345679012345674,0,0)" xlink:href="#aV"/><use transform="matrix(0.12345679012345674,0,0,0.12345679012345674,31.975308641975296,0)" xlink:href="#aK"/><use transform="matrix(0.12345679012345674,0,0,0.12345679012345674,56.66666666666664,0)" xlink:href="#aP"/><use transform="matrix(0.12345679012345674,0,0,0.12345679012345674,81.358024691358,0)" xlink:href="#aT"/><use transform="matrix(0.12345679012345674,0,0,0.12345679012345674,108.39506172839502,0)" xlink:href="#bg"/><use transform="matrix(0.12345679012345674,0,0,0.12345679012345674,135.43209876543204,0)" xlink:href="#aM"/><use transform="matrix(0.12345679012345674,0,0,0.12345679012345674,152.716049382716,0)" xlink:href="#aH"/><use transform="matrix(0.12345679012345674,0,0,0.12345679012345674,177.40740740740733,0)" xlink:href="#aK"/><use transform="matrix(0.12345679012345674,0,0,0.12345679012345674,202.09876543209867,0)" xlink:href="#aP"/></g><path fill="#3a414a" d="M136-208V0H84v-208H4v-40h212v40h-80" id="bt"/><g id="aa"><use transform="matrix(0.12345679012345674,0,0,0.12345679012345674,0,0)" xlink:href="#bt"/><use transform="matrix(0.12345679012345674,0,0,0.12345679012345674,23.703703703703695,0)" xlink:href="#aI"/><use transform="matrix(0.12345679012345674,0,0,0.12345679012345674,48.39506172839504,0)" xlink:href="#aE"/><use transform="matrix(0.12345679012345674,0,0,0.12345679012345674,60.74074074074072,0)" xlink:href="#aK"/><use transform="matrix(0.12345679012345674,0,0,0.12345679012345674,85.43209876543207,0)" xlink:href="#aG"/><use transform="matrix(0.12345679012345674,0,0,0.12345679012345674,112.4691358024691,0)" xlink:href="#aN"/></g><path fill="#3a414a" d="M84 4C32 4 15-41 15-95c0-55 18-99 73-99 29 0 47 12 58 34l2-30h48l-1 265h-49V-32C136-9 114 4 84 4zm21-34c32 0 41-29 41-66 0-36-9-64-40-64-33 0-39 30-40 65 0 43 13 65 39 65" id="bu"/><g id="ab"><use transform="matrix(0.12345679012345674,0,0,0.12345679012345674,0,0)" xlink:href="#ba"/><use transform="matrix(0.12345679012345674,0,0,0.12345679012345674,31.975308641975296,0)" xlink:href="#aH"/><use transform="matrix(0.12345679012345674,0,0,0.12345679012345674,56.66666666666664,0)" xlink:href="#bu"/><use transform="matrix(0.12345679012345674,0,0,0.12345679012345674,83.70370370370367,0)" xlink:href="#bg"/><use transform="matrix(0.12345679012345674,0,0,0.12345679012345674,110.74074074074069,0)" xlink:href="#aF"/><use transform="matrix(0.12345679012345674,0,0,0.12345679012345674,123.08641975308636,0)" xlink:href="#aP"/><use transform="matrix(0.12345679012345674,0,0,0.12345679012345674,147.77777777777771,0)" xlink:href="#aF"/><use transform="matrix(0.12345679012345674,0,0,0.12345679012345674,160.12345679012338,0)" xlink:href="#aN"/><use transform="matrix(0.12345679012345674,0,0,0.12345679012345674,174.81481481481472,0)" xlink:href="#aF"/><use transform="matrix(0.12345679012345674,0,0,0.12345679012345674,187.1604938271604,0)" xlink:href="#aT"/><use transform="matrix(0.12345679012345674,0,0,0.12345679012345674,214.19753086419743,0)" xlink:href="#aG"/></g><g id="ac"><use transform="matrix(0.12345679012345674,0,0,0.12345679012345674,0,0)" xlink:href="#aQ"/><use transform="matrix(0.12345679012345674,0,0,0.12345679012345674,31.975308641975296,0)" xlink:href="#aK"/><use transform="matrix(0.12345679012345674,0,0,0.12345679012345674,56.66666666666664,0)" xlink:href="#aG"/><use transform="matrix(0.12345679012345674,0,0,0.12345679012345674,83.70370370370367,0)" xlink:href="#aK"/><use transform="matrix(0.12345679012345674,0,0,0.12345679012345674,108.395061728395,0)" xlink:href="#bi"/><use transform="matrix(0.12345679012345674,0,0,0.12345679012345674,123.08641975308636,0)" xlink:href="#aF"/><use transform="matrix(0.12345679012345674,0,0,0.12345679012345674,135.43209876543204,0)" xlink:href="#aN"/><use transform="matrix(0.12345679012345674,0,0,0.12345679012345674,150.12345679012338,0)" xlink:href="#aP"/></g><use transform="matrix(0.12345679012345674,0,0,0.12345679012345674,0,0)" xlink:href="#bb" id="ad"/><g id="ae"><use transform="matrix(0.12345679012345674,0,0,0.12345679012345674,0,0)" xlink:href="#aD"/><use transform="matrix(0.12345679012345674,0,0,0.12345679012345674,31.975308641975296,0)" xlink:href="#aT"/><use transform="matrix(0.12345679012345674,0,0,0.12345679012345674,59.01234567901233,0)" xlink:href="#aO"/><use transform="matrix(0.12345679012345674,0,0,0.12345679012345674,98.51851851851848,0)" xlink:href="#aL"/><use transform="matrix(0.12345679012345674,0,0,0.12345679012345674,125.5555555555555,0)" xlink:href="#aK"/><use transform="matrix(0.12345679012345674,0,0,0.12345679012345674,150.24691358024685,0)" xlink:href="#aG"/><use transform="matrix(0.12345679012345674,0,0,0.12345679012345674,177.2839506172839,0)" xlink:href="#aP"/><use transform="matrix(0.12345679012345674,0,0,0.12345679012345674,201.97530864197523,0)" xlink:href="#aI"/><use transform="matrix(0.12345679012345674,0,0,0.12345679012345674,226.66666666666657,0)" xlink:href="#aN"/><use transform="matrix(0.12345679012345674,0,0,0.12345679012345674,241.3580246913579,0)" xlink:href="#aF"/><use transform="matrix(0.12345679012345674,0,0,0.12345679012345674,253.7037037037036,0)" xlink:href="#aT"/><use transform="matrix(0.12345679012345674,0,0,0.12345679012345674,280.7407407407406,0)" xlink:href="#aG"/></g><g id="af"><use transform="matrix(0.12345679012345674,0,0,0.12345679012345674,0,0)" xlink:href="#bq"/><use transform="matrix(0.12345679012345674,0,0,0.12345679012345674,27.037037037037027,0)" xlink:href="#aF"/><use transform="matrix(0.12345679012345674,0,0,0.12345679012345674,39.3827160493827,0)" xlink:href="#aG"/><use transform="matrix(0.12345679012345674,0,0,0.12345679012345674,66.41975308641973,0)" xlink:href="#aI"/><use transform="matrix(0.12345679012345674,0,0,0.12345679012345674,91.11111111111109,0)" xlink:href="#aG"/><use transform="matrix(0.12345679012345674,0,0,0.12345679012345674,118.14814814814811,0)" xlink:href="#aH"/><use transform="matrix(0.12345679012345674,0,0,0.12345679012345674,142.83950617283946,0)" xlink:href="#aK"/></g><g id="ag"><use transform="matrix(0.12345679012345674,0,0,0.12345679012345674,0,0)" xlink:href="#aV"/><use transform="matrix(0.12345679012345674,0,0,0.12345679012345674,31.975308641975296,0)" xlink:href="#aK"/><use transform="matrix(0.12345679012345674,0,0,0.12345679012345674,56.66666666666664,0)" xlink:href="#aS"/><use transform="matrix(0.12345679012345674,0,0,0.12345679012345674,81.358024691358,0)" xlink:href="#aK"/><use transform="matrix(0.12345679012345674,0,0,0.12345679012345674,106.04938271604934,0)" xlink:href="#aG"/><use transform="matrix(0.12345679012345674,0,0,0.12345679012345674,133.08641975308637,0)" xlink:href="#bg"/><use transform="matrix(0.12345679012345674,0,0,0.12345679012345674,160.1234567901234,0)" xlink:href="#aK"/></g><g id="ah"><use transform="matrix(0.12345679012345674,0,0,0.12345679012345674,0,0)" xlink:href="#aD"/><use transform="matrix(0.12345679012345674,0,0,0.12345679012345674,31.975308641975296,0)" xlink:href="#aY"/><use transform="matrix(0.12345679012345674,0,0,0.12345679012345674,56.66666666666664,0)" xlink:href="#aH"/><use transform="matrix(0.12345679012345674,0,0,0.12345679012345674,81.358024691358,0)" xlink:href="#aE"/><use transform="matrix(0.12345679012345674,0,0,0.12345679012345674,93.70370370370367,0)" xlink:href="#aK"/></g><g id="ai"><use transform="matrix(0.12345679012345674,0,0,0.12345679012345674,0,0)" xlink:href="#bc"/><use transform="matrix(0.12345679012345674,0,0,0.12345679012345674,29.62962962962962,0)" xlink:href="#aI"/><use transform="matrix(0.12345679012345674,0,0,0.12345679012345674,54.320987654320966,0)" xlink:href="#aY"/><use transform="matrix(0.12345679012345674,0,0,0.12345679012345674,79.01234567901231,0)" xlink:href="#aM"/><use transform="matrix(0.12345679012345674,0,0,0.12345679012345674,96.29629629629625,0)" xlink:href="#aT"/><use transform="matrix(0.12345679012345674,0,0,0.12345679012345674,123.33333333333327,0)" xlink:href="#aE"/><use transform="matrix(0.12345679012345674,0,0,0.12345679012345674,135.67901234567896,0)" xlink:href="#aE"/></g><g id="aj"><use transform="matrix(0.12345679012345674,0,0,0.12345679012345674,0,0)" xlink:href="#aV"/><use transform="matrix(0.12345679012345674,0,0,0.12345679012345674,31.975308641975296,0)" xlink:href="#aK"/><use transform="matrix(0.12345679012345674,0,0,0.12345679012345674,56.66666666666664,0)" xlink:href="#aF"/><use transform="matrix(0.12345679012345674,0,0,0.12345679012345674,69.01234567901231,0)" xlink:href="#aO"/><use transform="matrix(0.12345679012345674,0,0,0.12345679012345674,108.51851851851848,0)" xlink:href="#be"/><use transform="matrix(0.12345679012345674,0,0,0.12345679012345674,135.55555555555551,0)" xlink:href="#bg"/><use transform="matrix(0.12345679012345674,0,0,0.12345679012345674,162.59259259259255,0)" xlink:href="#aM"/><use transform="matrix(0.12345679012345674,0,0,0.12345679012345674,179.8765432098765,0)" xlink:href="#aP"/><use transform="matrix(0.12345679012345674,0,0,0.12345679012345674,204.56790123456784,0)" xlink:href="#aK"/><use transform="matrix(0.12345679012345674,0,0,0.12345679012345674,229.25925925925918,0)" xlink:href="#aO"/><use transform="matrix(0.12345679012345674,0,0,0.12345679012345674,268.76543209876536,0)" xlink:href="#aK"/><use transform="matrix(0.12345679012345674,0,0,0.12345679012345674,293.4567901234567,0)" xlink:href="#aG"/><use transform="matrix(0.12345679012345674,0,0,0.12345679012345674,320.4938271604937,0)" xlink:href="#aN"/></g><g id="ak"><use transform="matrix(0.12345679012345674,0,0,0.12345679012345674,0,0)" xlink:href="#aZ"/><use transform="matrix(0.12345679012345674,0,0,0.12345679012345674,29.62962962962962,0)" xlink:href="#bg"/><use transform="matrix(0.12345679012345674,0,0,0.12345679012345674,56.66666666666664,0)" xlink:href="#aL"/><use transform="matrix(0.12345679012345674,0,0,0.12345679012345674,83.70370370370367,0)" xlink:href="#aL"/><use transform="matrix(0.12345679012345674,0,0,0.12345679012345674,110.74074074074069,0)" xlink:href="#aE"/><use transform="matrix(0.12345679012345674,0,0,0.12345679012345674,123.08641975308636,0)" xlink:href="#aY"/></g><g id="al"><use transform="matrix(0.12345679012345674,0,0,0.12345679012345674,0,0)" xlink:href="#aD"/><use transform="matrix(0.12345679012345674,0,0,0.12345679012345674,31.975308641975296,0)" xlink:href="#aR"/><use transform="matrix(0.12345679012345674,0,0,0.12345679012345674,59.01234567901233,0)" xlink:href="#aI"/><use transform="matrix(0.12345679012345674,0,0,0.12345679012345674,83.70370370370367,0)" xlink:href="#aF"/><use transform="matrix(0.12345679012345674,0,0,0.12345679012345674,96.04938271604934,0)" xlink:href="#aG"/></g><g id="am"><use transform="matrix(0.12345679012345674,0,0,0.12345679012345674,0,0)" xlink:href="#bc"/><use transform="matrix(0.12345679012345674,0,0,0.12345679012345674,29.62962962962962,0)" xlink:href="#aR"/><use transform="matrix(0.12345679012345674,0,0,0.12345679012345674,56.66666666666664,0)" xlink:href="#aY"/><use transform="matrix(0.12345679012345674,0,0,0.12345679012345674,81.358024691358,0)" xlink:href="#aP"/><use transform="matrix(0.12345679012345674,0,0,0.12345679012345674,106.04938271604934,0)" xlink:href="#aF"/><use transform="matrix(0.12345679012345674,0,0,0.12345679012345674,118.395061728395,0)" xlink:href="#aH"/><use transform="matrix(0.12345679012345674,0,0,0.12345679012345674,143.08641975308635,0)" xlink:href="#aF"/><use transform="matrix(0.12345679012345674,0,0,0.12345679012345674,155.43209876543202,0)" xlink:href="#aI"/><use transform="matrix(0.12345679012345674,0,0,0.12345679012345674,180.12345679012336,0)" xlink:href="#aG"/></g><g id="an"><use transform="matrix(0.12345679012345674,0,0,0.12345679012345674,0,0)" xlink:href="#aQ"/><use transform="matrix(0.12345679012345674,0,0,0.12345679012345674,31.975308641975296,0)" xlink:href="#aF"/><use transform="matrix(0.12345679012345674,0,0,0.12345679012345674,44.32098765432097,0)" xlink:href="#aE"/><use transform="matrix(0.12345679012345674,0,0,0.12345679012345674,56.66666666666664,0)" xlink:href="#aE"/><use transform="matrix(0.12345679012345674,0,0,0.12345679012345674,69.01234567901231,0)" xlink:href="#aF"/><use transform="matrix(0.12345679012345674,0,0,0.12345679012345674,81.35802469135798,0)" xlink:href="#aG"/><use transform="matrix(0.12345679012345674,0,0,0.12345679012345674,108.395061728395,0)" xlink:href="#aX"/></g><g id="ao"><use transform="matrix(0.12345679012345674,0,0,0.12345679012345674,0,0)" xlink:href="#aU"/><use transform="matrix(0.12345679012345674,0,0,0.12345679012345674,31.975308641975296,0)" xlink:href="#aT"/><use transform="matrix(0.12345679012345674,0,0,0.12345679012345674,59.01234567901233,0)" xlink:href="#aP"/><use transform="matrix(0.12345679012345674,0,0,0.12345679012345674,83.70370370370367,0)" xlink:href="#aL"/><use transform="matrix(0.12345679012345674,0,0,0.12345679012345674,110.74074074074069,0)" xlink:href="#aF"/><use transform="matrix(0.12345679012345674,0,0,0.12345679012345674,123.08641975308636,0)" xlink:href="#aN"/><use transform="matrix(0.12345679012345674,0,0,0.12345679012345674,137.77777777777771,0)" xlink:href="#aI"/><use transform="matrix(0.12345679012345674,0,0,0.12345679012345674,162.46913580246905,0)" xlink:href="#aE"/></g><g id="ap"><use transform="matrix(0.12345679012345674,0,0,0.12345679012345674,0,0)" xlink:href="#aV"/><use transform="matrix(0.12345679012345674,0,0,0.12345679012345674,31.975308641975296,0)" xlink:href="#aK"/><use transform="matrix(0.12345679012345674,0,0,0.12345679012345674,56.66666666666664,0)" xlink:href="#aP"/><use transform="matrix(0.12345679012345674,0,0,0.12345679012345674,81.358024691358,0)" xlink:href="#aK"/><use transform="matrix(0.12345679012345674,0,0,0.12345679012345674,106.04938271604934,0)" xlink:href="#aI"/><use transform="matrix(0.12345679012345674,0,0,0.12345679012345674,130.74074074074068,0)" xlink:href="#aM"/><use transform="matrix(0.12345679012345674,0,0,0.12345679012345674,148.02469135802463,0)" xlink:href="#aH"/><use transform="matrix(0.12345679012345674,0,0,0.12345679012345674,172.71604938271597,0)" xlink:href="#aR"/></g><g id="aq"><use transform="matrix(0.12345679012345674,0,0,0.12345679012345674,0,0)" xlink:href="#ba"/><use transform="matrix(0.12345679012345674,0,0,0.12345679012345674,31.975308641975296,0)" xlink:href="#aM"/><use transform="matrix(0.12345679012345674,0,0,0.12345679012345674,49.25925925925924,0)" xlink:href="#aH"/><use transform="matrix(0.12345679012345674,0,0,0.12345679012345674,73.95061728395058,0)" xlink:href="#aR"/><use transform="matrix(0.12345679012345674,0,0,0.12345679012345674,100.9876543209876,0)" xlink:href="#aF"/><use transform="matrix(0.12345679012345674,0,0,0.12345679012345674,113.33333333333327,0)" xlink:href="#aS"/><use transform="matrix(0.12345679012345674,0,0,0.12345679012345674,138.02469135802463,0)" xlink:href="#aK"/><use transform="matrix(0.12345679012345674,0,0,0.12345679012345674,162.71604938271597,0)" xlink:href="#aW"/></g><g id="ar"><use transform="matrix(0.12345679012345674,0,0,0.12345679012345674,0,0)" xlink:href="#aD"/><use transform="matrix(0.12345679012345674,0,0,0.12345679012345674,31.975308641975296,0)" xlink:href="#aT"/><use transform="matrix(0.12345679012345674,0,0,0.12345679012345674,59.01234567901233,0)" xlink:href="#aG"/><use transform="matrix(0.12345679012345674,0,0,0.12345679012345674,86.04938271604935,0)" xlink:href="#aN"/><use transform="matrix(0.12345679012345674,0,0,0.12345679012345674,100.7407407407407,0)" xlink:href="#aM"/><use transform="matrix(0.12345679012345674,0,0,0.12345679012345674,118.02469135802465,0)" xlink:href="#aF"/><use transform="matrix(0.12345679012345674,0,0,0.12345679012345674,130.37037037037032,0)" xlink:href="#be"/><use transform="matrix(0.12345679012345674,0,0,0.12345679012345674,157.40740740740736,0)" xlink:href="#bg"/><use transform="matrix(0.12345679012345674,0,0,0.12345679012345674,184.4444444444444,0)" xlink:href="#aN"/><use transform="matrix(0.12345679012345674,0,0,0.12345679012345674,199.13580246913574,0)" xlink:href="#aF"/><use transform="matrix(0.12345679012345674,0,0,0.12345679012345674,211.4814814814814,0)" xlink:href="#aT"/><use transform="matrix(0.12345679012345674,0,0,0.12345679012345674,238.51851851851845,0)" xlink:href="#aG"/><use transform="matrix(0.12345679012345674,0,0,0.12345679012345674,265.5555555555555,0)" xlink:href="#aP"/></g><g id="as"><use transform="matrix(0.12345679012345674,0,0,0.12345679012345674,0,0)" xlink:href="#aJ"/><use transform="matrix(0.12345679012345674,0,0,0.12345679012345674,31.975308641975296,0)" xlink:href="#aI"/><use transform="matrix(0.12345679012345674,0,0,0.12345679012345674,56.66666666666664,0)" xlink:href="#aN"/><use transform="matrix(0.12345679012345674,0,0,0.12345679012345674,71.358024691358,0)" xlink:href="#aI"/></g><g id="at"><use transform="matrix(0.12345679012345674,0,0,0.12345679012345674,0,0)" xlink:href="#aZ"/><use transform="matrix(0.12345679012345674,0,0,0.12345679012345674,29.62962962962962,0)" xlink:href="#aK"/><use transform="matrix(0.12345679012345674,0,0,0.12345679012345674,54.320987654320966,0)" xlink:href="#aM"/><use transform="matrix(0.12345679012345674,0,0,0.12345679012345674,71.60493827160491,0)" xlink:href="#aS"/><use transform="matrix(0.12345679012345674,0,0,0.12345679012345674,96.29629629629625,0)" xlink:href="#aF"/><use transform="matrix(0.12345679012345674,0,0,0.12345679012345674,108.64197530864192,0)" xlink:href="#aH"/><use transform="matrix(0.12345679012345674,0,0,0.12345679012345674,133.33333333333326,0)" xlink:href="#aK"/><use transform="matrix(0.12345679012345674,0,0,0.12345679012345674,158.0246913580246,0)" xlink:href="#aP"/></g><path fill="#3a414a" d="M496-1349c439 0 656 222 653 664C1146-265 969 0 556 0H135v-1349h361zm36 1121c245-7 319-187 320-457 1-273-91-439-361-436h-61v893h102" id="bv"/><path fill="#3a414a" d="M616-1102c361 0 521 202 521 560 0 354-171 562-527 562C259 20 92-192 92-542c0-351 169-560 524-560zm-9 930c200-2 236-165 236-370 0-199-27-367-223-367-195 0-233 146-233 367 0 129 18 223 55 282s92 88 165 88" id="bw"/><path fill="#3a414a" d="M934-1102c199 0 220 177 220 381V0H926c-2-260 10-533-4-785-4-72-14-138-83-138-34 0-61 27-81 81s-29 134-29 241V0H501c-2-260 9-533-5-785-4-72-13-138-82-138-46 0-65 47-80 93-21 67-30 155-30 248V0H75c-3-360 6-732-6-1082h209c6 50 3 123 8 175 36-100 83-195 216-195 135 0 166 79 196 196 42-105 93-196 236-196" id="bx"/><path fill="#3a414a" d="M775-193C708-75 621 20 439 20 226 20 106-93 106-306c0-251 170-341 417-346l223-4c4-143-12-264-148-264-103 0-141 58-150 153l-293-14c37-219 194-321 455-321 263 0 418 130 417 390v392c1 84 5 161 89 160 21 0 42-2 62-6v152c-57 15-108 27-180 26-145 0-202-73-217-205h-6zm-256 17c168 0 234-139 227-325-166 4-347-25-347 173 0 94 33 152 120 152" id="by"/><path fill="#3a414a" d="M794-190h353V0H118v-190h395v-702H223v-190h571v892zM513-1277v-207h281v207H513" id="bz"/><path fill="#3a414a" d="M768-1103c247 0 336 167 336 416V0H824v-619c-3-164-24-273-171-273-164 0-229 142-229 312V0H143c-4-359 9-736-8-1082h268c7 63 12 146 13 215h4c67-145 160-236 348-236" id="bA"/><g id="au"><use transform="matrix(0.03363715277777773,0,0,0.03363715277777773,0,0)" xlink:href="#bv"/><use transform="matrix(0.03363715277777773,0,0,0.03363715277777773,41.34006076388883,0)" xlink:href="#bw"/><use transform="matrix(0.03363715277777773,0,0,0.03363715277777773,82.68012152777766,0)" xlink:href="#bx"/><use transform="matrix(0.03363715277777773,0,0,0.03363715277777773,124.02018229166649,0)" xlink:href="#by"/><use transform="matrix(0.03363715277777773,0,0,0.03363715277777773,165.36024305555532,0)" xlink:href="#bz"/><use transform="matrix(0.03363715277777773,0,0,0.03363715277777773,206.70030381944414,0)" xlink:href="#bA"/></g><path fill="#3a414a" d="M609-1161c-125 0-218 36-218 153 0 149 166 161 290 196 235 67 484 129 484 421 0 300-239 408-554 411C302 23 93-114 38-367l285-37c32 128 131 205 296 203 143-2 259-31 259-173 0-164-197-172-333-212-218-64-441-131-441-405 0-276 231-379 511-379 299 0 463 114 513 363l-286 29c-28-115-96-183-233-183" id="bB"/><path fill="#3a414a" d="M711 13c-250 0-386-99-385-349l2-556H161v-190h181l88-282h176v282h385v190H606v530c-10 130 45 186 174 184 91-2 176-11 255-27v186C933-1 833 13 711 13" id="bC"/><path fill="#3a414a" d="M875-1102c70 0 148 7 206 17v237c-110-17-267-37-359 15-123 69-192 207-192 395V0H250c-10-367 32-789-52-1082h271c19 69 36 149 46 228h4c52-151 151-250 356-248" id="bD"/><path fill="#3a414a" d="M471 20c-247 0-336-169-336-415v-687h281v607c4 148 31 285 172 285 152 0 207-150 207-312v-580h281c4 359-9 736 8 1082H816c-7-63-11-146-12-215h-5C736-76 644 20 471 20" id="bE"/><path fill="#3a414a" d="M1109-360C1066-122 902 20 624 20c-347 0-514-209-514-555 0-353 168-567 518-567 270 0 425 136 473 361l-283 14c-16-106-75-183-196-182-75 0-130 31-165 93s-52 152-52 270c0 249 74 374 221 374 120 0 188-82 201-201" id="bF"/><path fill="#3a414a" d="M1113-274C1038-96 884 20 626 20c-352 0-526-209-526-566 0-358 185-556 530-556 358 0 496 251 499 615H395c5 180 68 319 245 319 102 0 186-45 208-129zM857-663c-6-177-128-307-315-247-94 30-141 121-145 247h460" id="bG"/><g id="av"><use transform="matrix(0.03363715277777773,0,0,0.03363715277777773,0,0)" xlink:href="#bB"/><use transform="matrix(0.03363715277777773,0,0,0.03363715277777773,41.34006076388883,0)" xlink:href="#bC"/><use transform="matrix(0.03363715277777773,0,0,0.03363715277777773,82.68012152777766,0)" xlink:href="#bD"/><use transform="matrix(0.03363715277777773,0,0,0.03363715277777773,124.02018229166649,0)" xlink:href="#bE"/><use transform="matrix(0.03363715277777773,0,0,0.03363715277777773,165.36024305555532,0)" xlink:href="#bF"/><use transform="matrix(0.03363715277777773,0,0,0.03363715277777773,206.70030381944414,0)" xlink:href="#bC"/><use transform="matrix(0.03363715277777773,0,0,0.03363715277777773,248.04036458333297,0)" xlink:href="#bE"/><use transform="matrix(0.03363715277777773,0,0,0.03363715277777773,289.38042534722183,0)" xlink:href="#bD"/><use transform="matrix(0.03363715277777773,0,0,0.03363715277777773,330.72048611111063,0)" xlink:href="#bG"/></g><path fill="#3a414a" d="M872-915c-35-112-84-223-220-223-91 0-156 41-204 116-89 137-87 550 2 688 51 79 116 122 209 122 150 0 197-126 240-244l273 52C1094-168 961 20 656 20 239 20 80-262 80-681c0-418 154-689 568-689 289 0 425 167 496 389" id="bH"/><g id="aw"><use transform="matrix(0.03363715277777773,0,0,0.03363715277777773,0,0)" xlink:href="#bH"/><use transform="matrix(0.03363715277777773,0,0,0.03363715277777773,41.34006076388883,0)" xlink:href="#bw"/><use transform="matrix(0.03363715277777773,0,0,0.03363715277777773,82.68012152777766,0)" xlink:href="#bA"/><use transform="matrix(0.03363715277777773,0,0,0.03363715277777773,124.02018229166649,0)" xlink:href="#bC"/><use transform="matrix(0.03363715277777773,0,0,0.03363715277777773,165.36024305555532,0)" xlink:href="#bG"/><use transform="matrix(0.03363715277777773,0,0,0.03363715277777773,206.70030381944414,0)" xlink:href="#bA"/><use transform="matrix(0.03363715277777773,0,0,0.03363715277777773,248.04036458333297,0)" xlink:href="#bC"/></g><path fill="#3a414a" d="M305-1169c27 366 9 780 14 1169H99v-1349h347c49 189 108 371 150 564 12 56 15 107 23 166 33-270 117-487 176-730h335V0H908c5-390-13-801 16-1169-52 285-130 541-199 809H507c-70-267-148-525-202-809" id="bI"/><path fill="#3a414a" d="M427-171c3 195 2 397 2 596H148V-846c1-83-4-168-8-236h272c10 49 14 118 15 176h4c59-114 151-197 316-197 291 0 385 259 385 560 0 243-65 433-220 521-50 28-109 42-176 42-162-2-253-78-309-191zm69-661c-91 113-92 463-1 586 46 62 145 101 225 54 96-57 118-191 119-351 0-123-18-215-53-276-46-82-128-115-220-74-25 12-48 33-70 61" id="bJ"/><g id="ax"><use transform="matrix(0.03363715277777773,0,0,0.03363715277777773,0,0)" xlink:href="#bI"/><use transform="matrix(0.03363715277777773,0,0,0.03363715277777773,41.34006076388883,0)" xlink:href="#by"/><use transform="matrix(0.03363715277777773,0,0,0.03363715277777773,82.68012152777766,0)" xlink:href="#bJ"/></g><path fill="#3a414a" d="M713 0H515L10-1349h201C345-955 498-579 615-168c116-411 269-787 402-1181h201" id="bK"/><path fill="#3a414a" d="M617-1102c355 0 481 238 477 599H322c5 222 84 388 301 388 144 0 244-59 284-166l158 45C1002-72 854 20 623 20c-342 0-490-220-490-568 0-346 151-554 484-554zm291 461c-18-192-90-328-289-328-194 0-287 128-295 328h584" id="bL"/><path fill="#3a414a" d="M839-1102c70 0 148 7 206 17v167c-112-18-268-36-363 15-129 69-208 203-208 395V0H294c-10-367 32-789-52-1082h171c21 75 41 161 48 250h5c67-152 152-270 373-270" id="bM"/><path fill="#3a414a" d="M873-819c-18-114-119-146-250-146-163 0-245 50-245 151 0 151 170 148 294 185 182 54 388 94 388 320 0 240-189 325-439 329-245 4-410-69-454-268l159-31c24 133 136 168 295 165 144-2 270-31 270-171 0-164-195-160-331-202-167-52-350-87-350-299 0-218 173-315 413-313 220 2 373 77 412 260" id="bN"/><path fill="#3a414a" d="M745-142h380V0H143v-142h422v-798H246v-142h499v940zM545-1292v-192h200v192H545" id="bO"/><path fill="#3a414a" d="M615-1102c343 0 484 203 482 560-1 347-147 562-488 562-336 0-475-219-479-562-4-349 156-560 485-560zm-8 989c240 0 301-180 301-429 0-245-55-427-290-427-236 0-299 181-299 427 0 243 61 429 288 429" id="bP"/><path fill="#3a414a" d="M706-1102c241 0 344 136 343 381V0H868v-695c1-168-57-273-220-268-190 6-283 138-283 336V0H185c-3-360 6-732-6-1082h170c4 54 7 126 8 185h3c63-121 164-204 346-205" id="bQ"/><g id="ay"><use transform="matrix(0.010850694444444444,0,0,0.010850694444444444,0,0)" xlink:href="#bK"/><use transform="matrix(0.010850694444444444,0,0,0.010850694444444444,13.335503472222221,0)" xlink:href="#bL"/><use transform="matrix(0.010850694444444444,0,0,0.010850694444444444,26.671006944444443,0)" xlink:href="#bM"/><use transform="matrix(0.010850694444444444,0,0,0.010850694444444444,40.006510416666664,0)" xlink:href="#bN"/><use transform="matrix(0.010850694444444444,0,0,0.010850694444444444,53.342013888888886,0)" xlink:href="#bO"/><use transform="matrix(0.010850694444444444,0,0,0.010850694444444444,66.67751736111111,0)" xlink:href="#bP"/><use transform="matrix(0.010850694444444444,0,0,0.010850694444444444,80.01302083333334,0)" xlink:href="#bQ"/></g><path fill="#3a414a" d="M148-1120c216-7 379-89 463-229h166v1204h353V0H157v-145h439v-1021c-79 124-254 184-448 194v-148" id="bR"/><path fill="#3a414a" d="M496 0v-299h235V0H496" id="bS"/><path fill="#3a414a" d="M1065-1013c47 164 49 500-1 665C999-130 875 20 611 20c-377 0-484-300-487-695-2-245 41-425 141-551 77-98 191-144 352-144 261 0 386 140 448 357zM741-155c199-92 203-504 159-785-26-168-96-284-283-284-281 0-308 256-311 549-2 181 18 324 80 428 46 77 115 118 227 120 47 0 90-10 128-28zM496-555v-249h235v249H496" id="bT"/><g id="az"><use transform="matrix(0.010850694444444444,0,0,0.010850694444444444,0,0)" xlink:href="#bR"/><use transform="matrix(0.010850694444444444,0,0,0.010850694444444444,13.335503472222221,0)" xlink:href="#bS"/><use transform="matrix(0.010850694444444444,0,0,0.010850694444444444,26.671006944444443,0)" xlink:href="#bT"/></g><path fill="#3a414a" d="M237 0v-1349h191v1193h672V0H237" id="bU"/><path fill="#3a414a" d="M1000-272c3 95 12 159 101 161 21 0 41-3 59-7V-6c-44 10-86 16-139 16-141 2-191-84-197-217h-6C748-76 648 20 446 20c-207 0-318-120-318-322 0-266 194-348 454-354l236-4c12-191-40-305-222-305-140 0-220 47-232 172l-188-17c33-204 181-292 423-292 255 0 401 118 401 364v466zm-683-27c0 109 63 184 175 182 166-3 259-96 306-217 24-65 20-120 20-200-232 7-501-28-501 235" id="bV"/><path fill="#3a414a" d="M682 16c-209 0-323-80-324-285v-671H190v-142h170l58-282h120v282h432v142H538v652c2 114 60 155 182 155 106 0 209-16 297-34v137C921-4 806 16 682 16" id="bW"/><g id="aA"><use transform="matrix(0.010850694444444444,0,0,0.010850694444444444,0,0)" xlink:href="#bU"/><use transform="matrix(0.010850694444444444,0,0,0.010850694444444444,13.335503472222221,0)" xlink:href="#bV"/><use transform="matrix(0.010850694444444444,0,0,0.010850694444444444,26.671006944444443,0)" xlink:href="#bN"/><use transform="matrix(0.010850694444444444,0,0,0.010850694444444444,40.006510416666664,0)" xlink:href="#bW"/></g><path fill="#3a414a" d="M528 20c-247 0-343-132-343-381v-721h180v686c-4 177 45 284 224 277 194-8 279-136 279-336v-627h181c3 360-6 732 6 1082H885c-4-54-7-126-8-185h-3C809-64 714 20 528 20" id="bX"/><path fill="#3a414a" d="M698-1104c312 3 392 244 392 558 0 315-82 566-392 566-169 0-277-65-331-184h-5c8 188 2 394 4 589H185V-858c0-76-1-156-6-224h175c6 52 9 120 10 178h4c58-122 150-202 330-200zm-49 991c225 0 255-203 255-433 0-225-32-419-253-419-236 0-285 192-285 441 0 237 53 411 283 411" id="bY"/><path fill="#3a414a" d="M865-914c-3-187-2-380-2-570h180v1261c0 76 1 155 6 223H877c-8-49-9-116-10-174h-5C801-44 708 26 530 26c-135 0-234-46-297-139s-95-232-95-419c0-377 131-566 392-566 176 0 271 63 335 184zm-286-51c-222 0-255 197-255 427 0 229 31 425 253 425 237 0 286-195 286-441 0-238-52-411-284-411" id="bZ"/><g id="aB"><use transform="matrix(0.010850694444444444,0,0,0.010850694444444444,0,0)" xlink:href="#bX"/><use transform="matrix(0.010850694444444444,0,0,0.010850694444444444,13.335503472222221,0)" xlink:href="#bY"/><use transform="matrix(0.010850694444444444,0,0,0.010850694444444444,26.671006944444443,0)" xlink:href="#bZ"/><use transform="matrix(0.010850694444444444,0,0,0.010850694444444444,40.006510416666664,0)" xlink:href="#bV"/><use transform="matrix(0.010850694444444444,0,0,0.010850694444444444,53.342013888888886,0)" xlink:href="#bW"/><use transform="matrix(0.010850694444444444,0,0,0.010850694444444444,66.67751736111111,0)" xlink:href="#bL"/><use transform="matrix(0.010850694444444444,0,0,0.010850694444444444,80.01302083333334,0)" xlink:href="#bZ"/></g><path fill="#3a414a" d="M611-1370c266 0 451 106 451 368 0 147-77 243-154 327-132 144-316 255-451 395-42 44-75 87-96 134h723V0H144v-117c124-264 387-411 582-603 73-72 151-147 151-271 0-161-104-231-266-231-163 0-249 90-268 238l-184-17c35-233 185-369 452-369" id="ca"/><path fill="#3a414a" d="M937-319V0H757v-319H103v-140l635-890h199v888h188v142H937zm-180-835L257-461h500v-693" id="cb"/><path fill="#3a414a" d="M672-881c271 0 424 163 424 435 0 291-160 466-455 466-367 0-490-287-490-662 0-324 85-568 293-680 129-70 351-59 460 16 73 50 125 123 153 223l-172 31c-31-108-107-172-232-172-259 0-316 252-323 529 59-113 178-186 342-186zm-37 756c186 0 278-124 278-313s-96-304-284-304c-163 0-281 93-281 261 0 157 65 270 168 327 35 19 75 29 119 29" id="cc"/><g id="aC"><use transform="matrix(0.010850694444444444,0,0,0.010850694444444444,0,0)" xlink:href="#ca"/><use transform="matrix(0.010850694444444444,0,0,0.010850694444444444,13.335503472222221,0)" xlink:href="#bT"/><use transform="matrix(0.010850694444444444,0,0,0.010850694444444444,26.671006944444443,0)" xlink:href="#ca"/><use transform="matrix(0.010850694444444444,0,0,0.010850694444444444,40.006510416666664,0)" xlink:href="#cb"/><use transform="matrix(0.010850694444444444,0,0,0.010850694444444444,53.342013888888886,0)" xlink:href="#bT"/><use transform="matrix(0.010850694444444444,0,0,0.010850694444444444,66.67751736111111,0)" xlink:href="#cc"/><use transform="matrix(0.010850694444444444,0,0,0.010850694444444444,80.01302083333334,0)" xlink:href="#bT"/><use transform="matrix(0.010850694444444444,0,0,0.010850694444444444,93.34852430555557,0)" xlink:href="#cc"/></g></defs></g></svg>